<?xml version="1.0" encoding="utf-8"?>
<!-- Generator: Adobe Illustrator 16.0.0, SVG Export Plug-In . SVG Version: 6.00 Build 0)  -->
<!DOCTYPE svg PUBLIC "-//W3C//DTD SVG 1.1//EN" "http://www.w3.org/Graphics/SVG/1.1/DTD/svg11.dtd">
<svg version="1.1" id="_x23_Layer_1" xmlns="http://www.w3.org/2000/svg" xmlns:xlink="http://www.w3.org/1999/xlink" x="0px"
	 y="0px" width="2321.536px" height="1700px" viewBox="0 0 2321.536 1700" enable-background="new 0 0 2321.536 1700"
	 xml:space="preserve">
<rect x="-8.413" y="-5" fill-rule="evenodd" clip-rule="evenodd" fill="#B3DFEC" width="2352.498" height="1721.687"/>
<path fill-rule="evenodd" clip-rule="evenodd" fill="#C8E9F1" d="M289.742,886.063
	c121.236-452.449,581.625-693.158,1031.271-621.589C532.823,238.682,425.917,896.66,427.66,895.604
	c9.398-5.694,62.389-158.952,160.615-289.44c358.882-476.762,1183.607-375.231,1365.366,235.922
	c50.417,154.402,58.123,324.7,12.949,493.292c-12.004,44.798-18.526,13.841-36.787,54.924H346.656
	C267.297,1214.123,236.406,1085.112,289.742,886.063z"/>
<path opacity="0.8" fill-rule="evenodd" clip-rule="evenodd" fill="#E5F4F7" d="M561.248,462.918l112.91,5.145
	c-22.199,19.691-42.444,40.05-60.958,60.703l-124.453,1.775C511.603,506.551,535.822,483.996,561.248,462.918L561.248,462.918z
	 M721.525,470.221c-22.724,17.813-44.508,37.17-65.313,57.932l984.134-14.037l-434.827-21.842L721.525,470.221z"/>
<g>
	<path fill-rule="evenodd" clip-rule="evenodd" fill="#88905D" d="M1902.852,1309.368c0,0-304.396-142.505-512.677-449.681
		c-115.274-170.007-201.879-193.836-266.217-197.359c-1.188-0.281-2.396-0.473-3.653-0.473c-4.674,0-9.558-0.052-14.62-0.09
		c-2.405-0.022-4.778-0.032-7.114-0.029c-2.335-0.003-4.706,0.007-7.111,0.029c-5.063,0.038-9.949,0.09-14.62,0.09
		c-1.258,0-2.469,0.191-3.653,0.473c-64.341,3.523-150.942,27.353-266.217,197.359c-208.28,307.176-512.678,449.681-512.678,449.681
		l804.279-21.622L1902.852,1309.368z"/>
	<path fill-rule="evenodd" clip-rule="evenodd" fill="#747C3C" d="M1902.85,1309.368c0,0-304.395-142.507-512.675-449.681
		c-115.274-170.007-201.879-193.836-266.217-197.361c-1.188-0.279-2.396-0.471-3.653-0.471c-4.674,0-9.558-0.052-14.62-0.09
		c-2.408-0.022-4.778-0.032-7.114-0.029v626.01L1902.85,1309.368z"/>
</g>
<g>
	<path fill-rule="evenodd" clip-rule="evenodd" fill="#88905D" d="M1916.7,1215.077c0,0-86.824-40.648-146.233-128.266
		c-32.88-48.491-57.582-55.288-75.934-56.293c-0.339-0.081-0.684-0.136-1.042-0.136c-1.334,0-2.727-0.014-4.17-0.024
		c-0.687-0.007-1.363-0.01-2.029-0.009c-0.667-0.001-1.343,0.002-2.029,0.009c-1.443,0.011-2.838,0.024-4.17,0.024
		c-0.358,0-0.704,0.055-1.042,0.136c-18.353,1.005-43.054,7.802-75.935,56.293c-59.408,87.617-146.233,128.266-146.233,128.266
		l229.409-6.168L1916.7,1215.077z"/>
	<path fill-rule="evenodd" clip-rule="evenodd" fill="#747C3C" d="M1916.7,1215.077c0,0-86.824-40.648-146.233-128.266
		c-32.88-48.491-57.582-55.288-75.934-56.294c-0.339-0.08-0.684-0.135-1.042-0.135c-1.334,0-2.727-0.014-4.17-0.024
		c-0.688-0.007-1.363-0.01-2.029-0.009v178.56L1916.7,1215.077z"/>
</g>
<g>
	<path fill-rule="evenodd" clip-rule="evenodd" fill="#88905D" d="M958.761,1295.673c0,0-132.806-62.174-223.677-196.193
		c-50.293-74.171-88.078-84.567-116.148-86.105c-0.518-0.123-1.045-0.206-1.593-0.206c-2.039,0-4.17-0.022-6.38-0.039
		c-1.049-0.01-2.083-0.013-3.103-0.013c-1.019,0-2.055,0.003-3.104,0.013c-2.209,0.017-4.34,0.039-6.38,0.039
		c-0.547,0-1.075,0.083-1.593,0.206c-28.071,1.538-65.855,11.935-116.148,86.105c-90.87,134.02-223.677,196.193-223.677,196.193
		l350.901-9.434L958.761,1295.673z"/>
	<path fill-rule="evenodd" clip-rule="evenodd" fill="#747C3C" d="M958.761,1295.673c0,0-132.806-62.176-223.677-196.193
		c-50.293-74.171-88.078-84.567-116.146-86.104c-0.519-0.124-1.047-0.207-1.595-0.207c-2.039,0-4.17-0.022-6.379-0.039
		c-1.05-0.01-2.084-0.013-3.104-0.013v273.123L958.761,1295.673z"/>
</g>
<g>
	<path fill-rule="evenodd" clip-rule="evenodd" fill="#FFFFFF" d="M376.741,949.078c4.901,0,8.899-3.998,8.899-8.9
		c0-4.9-3.998-8.898-8.899-8.898c-4.903,0-8.901,3.998-8.901,8.898C367.84,945.08,371.838,949.078,376.741,949.078z"/>
	<path fill-rule="evenodd" clip-rule="evenodd" fill="#FFFFFF" d="M434.188,1008.145c8.467,0,15.374-6.907,15.374-15.375
		c0-8.467-6.907-15.373-15.374-15.373s-15.373,6.906-15.373,15.373C418.814,1001.237,425.721,1008.145,434.188,1008.145z"/>
	<path fill-rule="evenodd" clip-rule="evenodd" fill="#FFFFFF" d="M1300.108,905.314c4.902,0,8.9-3.998,8.9-8.9s-3.998-8.9-8.9-8.9
		s-8.9,3.998-8.9,8.9S1295.206,905.314,1300.108,905.314z"/>
	<path fill-rule="evenodd" clip-rule="evenodd" fill="#FFFFFF" d="M1341.208,883.539c8.467,0,15.375-6.904,15.375-15.373
		c0-8.467-6.908-15.373-15.375-15.373s-15.373,6.906-15.373,15.373C1325.835,876.635,1332.741,883.539,1341.208,883.539z"/>
	<path fill-rule="evenodd" clip-rule="evenodd" fill="#FFFFFF" d="M1746.577,813.957c4.902,0,8.9-4,8.9-8.902
		c0-4.9-3.998-8.9-8.9-8.9s-8.9,4-8.9,8.9C1737.677,809.957,1741.675,813.957,1746.577,813.957z"/>
	<path fill-rule="evenodd" clip-rule="evenodd" fill="#FFFFFF" d="M1811.306,839.318c2.383,0,4.324-1.943,4.324-4.326
		c0-2.381-1.941-4.324-4.324-4.324c-2.381,0-4.324,1.943-4.324,4.324C1806.981,837.375,1808.925,839.318,1811.306,839.318z"/>
	<path fill-rule="evenodd" clip-rule="evenodd" fill="#FFFFFF" d="M1914.065,909.433c4.902,0,8.9-3.999,8.9-8.901
		s-3.998-8.9-8.9-8.9s-8.9,3.998-8.9,8.9S1909.163,909.433,1914.065,909.433z"/>
	<path fill-rule="evenodd" clip-rule="evenodd" fill="#FFFFFF" d="M1583.944,1002.76c2.383,0,4.324-1.944,4.324-4.325
		c0-2.382-1.941-4.324-4.324-4.324c-2.381,0-4.324,1.942-4.324,4.324C1579.62,1000.815,1581.563,1002.76,1583.944,1002.76z"/>
	<path fill-rule="evenodd" clip-rule="evenodd" fill="#FFFFFF" d="M1615.37,977.113c4.902,0,8.9-3.998,8.9-8.899
		c0-4.903-3.998-8.901-8.9-8.901s-8.9,3.998-8.9,8.901C1606.47,973.115,1610.468,977.113,1615.37,977.113z"/>
	<path fill-rule="evenodd" clip-rule="evenodd" fill="#FFFFFF" d="M956.008,953.788c8.469,0,15.375-6.907,15.375-15.375
		c0-8.466-6.906-15.372-15.375-15.372c-8.467,0-15.373,6.906-15.373,15.372C940.635,946.881,947.541,953.788,956.008,953.788z"/>
	<path fill-rule="evenodd" clip-rule="evenodd" fill="#FFFFFF" d="M736.799,1049.409c4.9,0,8.9-4,8.9-8.901c0-4.903-4-8.9-8.9-8.9
		c-4.902,0-8.899,3.997-8.899,8.9C727.899,1045.409,731.896,1049.409,736.799,1049.409z"/>
	<path fill-rule="evenodd" clip-rule="evenodd" fill="#FFFFFF" d="M683.558,386.893c4.901,0,8.899-3.998,8.899-8.9
		s-3.998-8.9-8.899-8.9c-4.903,0-8.901,3.998-8.901,8.9S678.654,386.893,683.558,386.893z"/>
	<path fill-rule="evenodd" clip-rule="evenodd" fill="#FFFFFF" d="M674.656,418.852c2.451,0,4.449-1.998,4.449-4.449
		s-1.998-4.451-4.449-4.451s-4.451,2-4.451,4.451S672.205,418.852,674.656,418.852z"/>
	<circle fill-rule="evenodd" clip-rule="evenodd" fill="#FFFFFF" cx="1452.72" cy="443.24" r="8.9"/>
	<circle fill-rule="evenodd" clip-rule="evenodd" fill="#FFFFFF" cx="1499.574" cy="451.188" r="4.45"/>
</g>
<path fill-rule="evenodd" clip-rule="evenodd" fill="#94A33F" d="M2054.169,1297.38H849.401
	C849.401,1297.38,1718.203,997.223,2054.169,1297.38z"/>
<path fill-rule="evenodd" clip-rule="evenodd" fill="#94A33F" d="M1162.704,1367.674c221.876,0,424.828-6.199,581.709-16.454
	c-260.48-73.509-1191.79-311.953-1481.759-52.888l2.748,5.086C299.231,1339.337,687.854,1367.674,1162.704,1367.674z"/>
<g>
	<path fill-rule="evenodd" clip-rule="evenodd" fill="#B3C455" d="M2020.52,1338.652H266.514c-18.887,0-34.197-15.311-34.197-34.196
		s15.311-34.197,34.197-34.197H2020.52c18.886,0,34.197,15.312,34.197,34.197S2039.405,1338.652,2020.52,1338.652z"/>
	<path fill-rule="evenodd" clip-rule="evenodd" fill="#A05831" d="M1921.716,1413.367H371.131
		c-41.264,0-74.713-33.451-74.713-74.715h1700.011C1996.429,1379.916,1962.978,1413.367,1921.716,1413.367z"/>
	<path opacity="0.1" fill-rule="evenodd" clip-rule="evenodd" d="M1986.352,1376.01c6.372-10.998,10.077-23.732,10.077-37.357
		H296.418c0,13.625,3.706,26.359,10.078,37.357H1986.352z"/>
	<path opacity="0.15" fill-rule="evenodd" clip-rule="evenodd" fill="#FFFFFF" d="M1255.124,1338.652H499.236
		c-18.917,0-34.252-15.334-34.252-34.251c0-18.916,15.335-34.251,34.252-34.251h755.888c18.916,0,34.251,15.335,34.251,34.251
		C1289.375,1323.318,1274.04,1338.652,1255.124,1338.652z"/>
	<path opacity="0.1" fill-rule="evenodd" clip-rule="evenodd" d="M2005.521,1338.652h-199.577
		c-18.886,0-34.196-15.311-34.196-34.196s15.311-34.197,34.196-34.197h199.577c18.887,0,34.197,15.312,34.197,34.197
		S2024.407,1338.652,2005.521,1338.652z"/>
</g>
<path fill-rule="evenodd" clip-rule="evenodd" fill="#A05831" d="M1397.932,1437.938H518.17c-13.551,0-24.533-10.985-24.533-24.533
	c0-13.551,10.982-24.536,24.533-24.536h879.762c13.55,0,24.533,10.985,24.533,24.536
	C1422.465,1426.952,1411.481,1437.938,1397.932,1437.938z"/>
<path fill-rule="evenodd" clip-rule="evenodd" fill="#A05831" d="M1214.699,1399.091H1833.4c13.551,0,24.532,10.985,24.532,24.533
	c0,13.551-10.981,24.536-24.532,24.536h-618.701c-13.552,0-24.533-10.985-24.533-24.536
	C1190.166,1410.076,1201.147,1399.091,1214.699,1399.091z"/>
<path fill-rule="evenodd" clip-rule="evenodd" fill="#8F4F2E" d="M1109.014,1412.688h101.002c4.999,0,9.09,4.092,9.09,9.09
	c0,5-4.091,9.091-9.09,9.091h-101.002c-4.999,0-9.09-4.091-9.09-9.091C1099.924,1416.779,1104.015,1412.688,1109.014,1412.688z"/>
<path fill-rule="evenodd" clip-rule="evenodd" fill="#8F4F2E" d="M1476.553,1387.083h18.825c4.999,0,9.091,4.091,9.091,9.091
	c0,4.999-4.092,9.091-9.091,9.091h-18.825c-4.998,0-9.09-4.092-9.09-9.091C1467.463,1391.174,1471.555,1387.083,1476.553,1387.083z"
	/>
<path fill-rule="evenodd" clip-rule="evenodd" fill="#8F4F2E" d="M599.188,1413.367h31.863c7.277,0,13.175-5.899,13.175-13.179
	c0-7.274-5.897-13.174-13.175-13.174h-31.863c-7.276,0-13.175,5.899-13.175,13.174
	C586.014,1407.468,591.912,1413.367,599.188,1413.367z"/>
<path fill-rule="evenodd" clip-rule="evenodd" fill="#8F4F2E" d="M572.67,1401.681h-18.828c-4.998,0-9.088,4.092-9.088,9.091
	c0,5,4.09,9.087,9.088,9.087h18.828c4.998,0,9.089-4.087,9.089-9.087C581.759,1405.772,577.668,1401.681,572.67,1401.681z"/>
<path fill-rule="evenodd" clip-rule="evenodd" fill="#8F4F2E" d="M562.359,1440.594c2.896,0,5.262-2.363,5.262-5.261
	s-2.365-5.261-5.262-5.261c-2.899,0-5.262,2.363-5.262,5.261S559.46,1440.594,562.359,1440.594z"/>
<path fill-rule="evenodd" clip-rule="evenodd" fill="#8F4F2E" d="M640.383,1482.595c6.709,0,12.182-5.472,12.182-12.183
	c0-6.707-5.473-12.179-12.182-12.179s-12.182,5.472-12.182,12.179C628.201,1477.123,633.674,1482.595,640.383,1482.595z"/>
<path fill-rule="evenodd" clip-rule="evenodd" fill="#8F4F2E" d="M1166.151,1470.37c6.71,0,12.182-5.472,12.182-12.183
	c0-6.708-5.472-12.18-12.182-12.18c-6.709,0-12.181,5.472-12.181,12.18C1153.971,1464.898,1159.442,1470.37,1166.151,1470.37z"/>
<path fill-rule="evenodd" clip-rule="evenodd" fill="#8F4F2E" d="M1626.577,1420.142h-54.536c-12.457,0-22.552,10.099-22.552,22.556
	s10.095,22.551,22.552,22.551h54.536c12.458,0,22.552-10.094,22.552-22.551S1639.035,1420.142,1626.577,1420.142z"/>
<path fill-rule="evenodd" clip-rule="evenodd" fill="#8F4F2E" d="M1909.814,1404.822h32.222c8.561,0,15.559-7.002,15.559-15.558
	s-6.998-15.562-15.559-15.562h-32.222c-8.557,0-15.558,7.001-15.558,15.562C1894.257,1397.82,1901.258,1404.822,1909.814,1404.822z"
	/>
<path fill-rule="evenodd" clip-rule="evenodd" fill="#A05831" d="M1196.733,1491.928h101.002c5,0,9.091-4.091,9.091-9.091
	c0-4.999-4.091-9.091-9.091-9.091h-101.002c-5,0-9.088,4.092-9.088,9.091C1187.646,1487.837,1191.733,1491.928,1196.733,1491.928z"
	/>
<path fill-rule="evenodd" clip-rule="evenodd" fill="#A05831" d="M1324.055,1490.266h18.824c4.999,0,9.091-4.092,9.091-9.091
	c0-5-4.092-9.091-9.091-9.091h-18.824c-4.999,0-9.091,4.091-9.091,9.091C1314.964,1486.174,1319.056,1490.266,1324.055,1490.266z"/>
<path fill-rule="evenodd" clip-rule="evenodd" fill="#A0553F" d="M1535.1,1581.663c13.455,0,24.429-10.977,24.429-24.429
	c0-13.455-10.974-24.429-24.429-24.429c-13.456,0-24.43,10.974-24.43,24.429C1510.67,1570.687,1521.644,1581.663,1535.1,1581.663z"
	/>
<path fill-rule="evenodd" clip-rule="evenodd" fill="#8F4F2E" d="M994.587,1491.006h43.469c9.929,0,17.975-8.046,17.975-17.975
	c0-9.928-8.046-17.975-17.975-17.975h-43.469c-9.927,0-17.975,8.047-17.975,17.975
	C976.612,1482.96,984.66,1491.006,994.587,1491.006z"/>
<g>
	<g>
		<polygon fill-rule="evenodd" clip-rule="evenodd" fill="#FFFBFD" points="706.997,1221.476 688.058,1221.476 693.617,963.394 
			701.438,963.394 		"/>
		<polygon fill-rule="evenodd" clip-rule="evenodd" fill="#BCBEC0" points="706.997,1221.476 698.667,1221.476 696.566,963.394 
			701.438,963.394 		"/>
		<g>
			<g>
				<path fill-rule="evenodd" clip-rule="evenodd" fill="#FFFBFD" d="M655.607,852.486l-0.695,0.26
					c1.836,11.562,9.479,46.336,15.4,60.722c5.638,13.696,16.246,37.71,20.428,47.139c0.99,2.23,3.541,3.294,5.826,2.439
					s3.512-3.332,2.795-5.665c-3.031-9.858-10.787-34.939-15.521-48.973C678.866,893.668,661.811,862.414,655.607,852.486z"/>
				<path fill-rule="evenodd" clip-rule="evenodd" fill="#BCBEC0" d="M699.362,957.381c-3.032-9.858-10.788-34.939-15.522-48.973
					c-4.974-14.74-22.029-45.995-28.232-55.922l-0.695,0.26l43.171,109.363C699.346,960.942,699.897,959.123,699.362,957.381z"/>
				<g>
					<path fill-rule="evenodd" clip-rule="evenodd" fill="#FFFBFD" d="M623.141,1059.649l-0.582-0.459
						c5.282-10.446,23.192-41.218,33.23-53.104c9.555-11.315,26.998-30.936,33.863-38.634c1.624-1.82,4.379-2.054,6.293-0.54
						c1.915,1.513,2.326,4.246,0.93,6.247c-5.902,8.46-20.956,29.967-29.755,41.881
						C657.878,1027.553,632.082,1052.096,623.141,1059.649z"/>
					<path fill-rule="evenodd" clip-rule="evenodd" fill="#BCBEC0" d="M623.141,1059.649c8.941-7.554,34.737-32.097,43.979-44.61
						c8.799-11.913,23.853-33.419,29.755-41.88c1.396-2.001,0.984-4.734-0.93-6.247l-73.182,92.439L623.141,1059.649z"/>
					<path fill-rule="evenodd" clip-rule="evenodd" fill="#FFFBFD" d="M815.367,987.747l0.138-0.729
						c-10.841-4.415-44.55-15.88-59.924-18.261c-14.636-2.266-40.673-5.622-50.905-6.925c-2.42-0.308-4.652,1.324-5.104,3.722
						c-0.451,2.398,1.032,4.73,3.398,5.324c10.006,2.511,35.479,8.857,49.938,12.071
						C768.094,986.327,803.663,987.915,815.367,987.747z"/>
					<path fill-rule="evenodd" clip-rule="evenodd" fill="#BCBEC0" d="M699.572,965.555c-0.451,2.398,1.032,4.73,3.398,5.324
						c10.006,2.51,35.479,8.857,49.938,12.071c15.186,3.377,50.754,4.964,62.459,4.797l0.137-0.729l-115.67-22.124
						C699.754,965.118,699.617,965.313,699.572,965.555z"/>
				</g>
			</g>
			<circle fill-rule="evenodd" clip-rule="evenodd" fill="#FFFBFD" cx="697.527" cy="965.614" r="9.405"/>
			<circle fill-rule="evenodd" clip-rule="evenodd" fill="#BCBEC0" cx="697.528" cy="965.614" r="5.635"/>
		</g>
	</g>
</g>
<g>
	<g>
		<polygon fill-rule="evenodd" clip-rule="evenodd" fill="#FFFBFD" points="495.46,1270.259 460.664,1270.259 470.879,796.107 
			485.245,796.107 		"/>
		<polygon fill-rule="evenodd" clip-rule="evenodd" fill="#BCBEC0" points="495.46,1270.259 480.156,1270.259 476.297,796.107 
			485.245,796.107 		"/>
		<g>
			<g>
				<path fill-rule="evenodd" clip-rule="evenodd" fill="#FFFBFD" d="M401.047,592.347l-1.277,0.478
					c3.373,21.24,17.413,85.129,28.293,111.56c10.357,25.161,29.846,69.28,37.53,86.603c1.818,4.098,6.506,6.052,10.704,4.481
					c4.199-1.57,6.453-6.122,5.135-10.407c-5.569-18.113-19.818-64.19-28.518-89.973
					C443.777,668.006,412.441,610.586,401.047,592.347z"/>
				<path fill-rule="evenodd" clip-rule="evenodd" fill="#BCBEC0" d="M481.434,785.061c-5.571-18.113-19.82-64.19-28.52-89.973
					c-9.137-27.082-40.473-84.504-51.867-102.741l-1.277,0.478l79.313,200.924C481.403,791.603,482.416,788.262,481.434,785.061z"/>
				<g>
					<path fill-rule="evenodd" clip-rule="evenodd" fill="#FFFBFD" d="M341.396,972.95l-1.068-0.845
						c9.705-19.191,42.609-75.726,61.051-97.564c17.557-20.788,49.602-56.834,62.215-70.978c2.984-3.345,8.045-3.772,11.563-0.993
						s4.271,7.801,1.707,11.479c-10.843,15.543-38.5,55.055-54.666,76.943C405.218,913.982,357.824,959.07,341.396,972.95z"/>
					<path fill-rule="evenodd" clip-rule="evenodd" fill="#BCBEC0" d="M341.396,972.95c16.428-13.88,63.821-58.968,80.801-81.96
						c16.166-21.887,43.823-61.397,54.666-76.941c2.564-3.678,1.809-8.699-1.708-11.479l-134.45,169.832L341.396,972.95z"/>
					<path fill-rule="evenodd" clip-rule="evenodd" fill="#FFFBFD" d="M694.56,840.85l0.253-1.34
						c-19.918-8.11-81.85-29.173-110.094-33.547c-26.89-4.164-74.725-10.33-93.523-12.723c-4.447-0.566-8.546,2.432-9.376,6.838
						c-0.829,4.404,1.896,8.689,6.245,9.781c18.381,4.611,65.18,16.273,91.742,22.178
						C607.707,838.241,673.057,841.158,694.56,840.85z"/>
					<path fill-rule="evenodd" clip-rule="evenodd" fill="#BCBEC0" d="M481.819,800.078c-0.829,4.406,1.896,8.689,6.245,9.781
						c18.381,4.61,65.18,16.273,91.742,22.178c27.9,6.204,93.248,9.119,114.753,8.813l0.251-1.341l-212.51-40.646
						C482.152,799.276,481.902,799.633,481.819,800.078z"/>
				</g>
			</g>
			<circle fill-rule="evenodd" clip-rule="evenodd" fill="#FFFBFD" cx="478.062" cy="800.186" r="17.28"/>
			<circle fill-rule="evenodd" clip-rule="evenodd" fill="#BCBEC0" cx="478.063" cy="800.186" r="10.353"/>
		</g>
	</g>
</g>
<g>
	<g>
		<polygon fill-rule="evenodd" clip-rule="evenodd" fill="#FFFBFD" points="823.071,1194.879 810.828,1194.879 814.422,1028.048 
			819.477,1028.048 		"/>
		<polygon fill-rule="evenodd" clip-rule="evenodd" fill="#BCBEC0" points="823.071,1194.879 817.687,1194.879 816.328,1028.048 
			819.477,1028.048 		"/>
		<g>
			<g>
				<path fill-rule="evenodd" clip-rule="evenodd" fill="#FFFBFD" d="M789.852,956.354l-0.449,0.168
					c1.187,7.473,6.127,29.952,9.955,39.252c3.645,8.854,10.502,24.377,13.205,30.472c0.641,1.441,2.289,2.129,3.766,1.577
					c1.479-0.553,2.271-2.154,1.808-3.662c-1.96-6.373-6.974-22.586-10.034-31.657C804.887,982.976,793.861,962.771,789.852,956.354
					z"/>
				<path fill-rule="evenodd" clip-rule="evenodd" fill="#BCBEC0" d="M818.136,1024.161c-1.96-6.373-6.974-22.586-10.034-31.657
					c-3.215-9.528-14.24-29.732-18.25-36.149l-0.449,0.168l27.906,70.695C818.125,1026.463,818.482,1025.287,818.136,1024.161z"/>
				<g>
					<path fill-rule="evenodd" clip-rule="evenodd" fill="#FFFBFD" d="M768.864,1090.271l-0.376-0.297
						c3.414-6.753,14.992-26.645,21.48-34.329c6.178-7.314,17.453-19.997,21.891-24.973c1.05-1.178,2.83-1.328,4.068-0.35
						c1.237,0.978,1.503,2.744,0.601,4.038c-3.815,5.469-13.547,19.371-19.235,27.073
						C791.319,1069.522,774.645,1085.387,768.864,1090.271z"/>
					<path fill-rule="evenodd" clip-rule="evenodd" fill="#BCBEC0" d="M768.864,1090.271c5.78-4.884,22.455-20.748,28.429-28.838
						c5.688-7.701,15.42-21.603,19.235-27.072c0.902-1.294,0.636-3.061-0.601-4.038l-47.308,59.756L768.864,1090.271z"/>
					<path fill-rule="evenodd" clip-rule="evenodd" fill="#FFFBFD" d="M893.125,1043.79l0.089-0.471
						c-7.009-2.854-28.799-10.265-38.736-11.804c-9.462-1.465-26.292-3.635-32.907-4.477c-1.564-0.199-3.006,0.855-3.299,2.405
						c-0.291,1.55,0.668,3.058,2.197,3.442c6.468,1.622,22.935,5.726,32.28,7.804
						C862.566,1042.873,885.559,1043.898,893.125,1043.79z"/>
					<path fill-rule="evenodd" clip-rule="evenodd" fill="#BCBEC0" d="M818.271,1029.444c-0.291,1.551,0.668,3.058,2.197,3.442
						c6.468,1.622,22.935,5.726,32.28,7.804c9.817,2.183,32.81,3.208,40.376,3.1l0.089-0.472l-74.772-14.301
						C818.389,1029.163,818.301,1029.288,818.271,1029.444z"/>
				</g>
			</g>
			<circle fill-rule="evenodd" clip-rule="evenodd" fill="#FFFBFD" cx="816.95" cy="1029.483" r="6.08"/>
			<circle fill-rule="evenodd" clip-rule="evenodd" fill="#BCBEC0" cx="816.949" cy="1029.483" r="3.643"/>
		</g>
	</g>
</g>
<g>
	<g>
		<polygon fill-rule="evenodd" clip-rule="evenodd" fill="#DFDFE1" points="523.609,1270.259 509.566,1270.259 514.278,1233.51 
			518.896,1233.51 		"/>
		<g>
			<path fill-rule="evenodd" clip-rule="evenodd" fill="#DFDFE1" d="M477.502,1248.181c-2.072,0-3.756-1.684-3.756-3.754v-40.036
				c0-2.069,1.684-3.754,3.756-3.754h78.172c2.071,0,3.755,1.685,3.755,3.754v40.036c0,2.07-1.684,3.754-3.755,3.754H477.502z"/>
			<path fill-rule="evenodd" clip-rule="evenodd" fill="#CBCCCC" d="M477.502,1246.075c-0.91,0-1.65-0.74-1.65-1.648v-40.036
				c0-0.908,0.74-1.647,1.65-1.647h78.172c0.91,0,1.65,0.739,1.65,1.647v40.036c0,0.908-0.74,1.648-1.65,1.648H477.502z"/>
			<g>
				<rect x="526.627" y="1204.132" fill-rule="evenodd" clip-rule="evenodd" fill="#ECF8FE" width="15.25" height="10.237"/>
				<rect x="491.299" y="1204.132" fill-rule="evenodd" clip-rule="evenodd" fill="#ECF8FE" width="15.25" height="10.237"/>
				<rect x="508.963" y="1216.783" fill-rule="evenodd" clip-rule="evenodd" fill="#ECF8FE" width="15.25" height="15.25"/>
				<path fill-rule="evenodd" clip-rule="evenodd" fill="#ECF8FE" d="M544.291,1214.369h11.359v-7.266
					c0-1.641-1.33-2.972-2.971-2.972h-8.389V1214.369z"/>
				<rect x="491.299" y="1234.448" fill-rule="evenodd" clip-rule="evenodd" fill="#ECF8FE" width="15.25" height="10.236"/>
				<rect x="491.299" y="1216.783" fill-rule="evenodd" clip-rule="evenodd" fill="#ECF8FE" width="15.25" height="15.25"/>
				<rect x="477.525" y="1216.783" fill-rule="evenodd" clip-rule="evenodd" fill="#ECF8FE" width="11.359" height="15.25"/>
				<rect x="508.963" y="1204.132" fill-rule="evenodd" clip-rule="evenodd" fill="#ECF8FE" width="15.25" height="10.237"/>
				<path fill-rule="evenodd" clip-rule="evenodd" fill="#ECF8FE" d="M488.885,1214.369v-10.237h-8.388
					c-1.641,0-2.972,1.331-2.972,2.972v7.266H488.885z"/>
				<path fill-rule="evenodd" clip-rule="evenodd" fill="#ECF8FE" d="M488.885,1234.448h-11.359v7.266
					c0,1.641,1.331,2.971,2.972,2.971h8.388V1234.448z"/>
				<path fill-rule="evenodd" clip-rule="evenodd" fill="#ECF8FE" d="M544.291,1234.448v10.236h8.389
					c1.641,0,2.971-1.33,2.971-2.971v-7.266H544.291z"/>
				<rect x="526.627" y="1216.783" fill-rule="evenodd" clip-rule="evenodd" fill="#ECF8FE" width="15.25" height="15.25"/>
				<rect x="526.627" y="1234.448" fill-rule="evenodd" clip-rule="evenodd" fill="#ECF8FE" width="15.25" height="10.236"/>
				<rect x="508.963" y="1234.448" fill-rule="evenodd" clip-rule="evenodd" fill="#ECF8FE" width="15.25" height="10.236"/>
				<rect x="544.291" y="1216.783" fill-rule="evenodd" clip-rule="evenodd" fill="#ECF8FE" width="11.359" height="15.25"/>
			</g>
		</g>
	</g>
	<polygon fill-rule="evenodd" clip-rule="evenodd" fill="#CBCCCC" points="511.675,1253.812 521.5,1253.812 520.779,1248.181 
		512.396,1248.181 	"/>
</g>
<g>
	<g>
		<polygon fill-rule="evenodd" clip-rule="evenodd" fill="#DFDFE1" points="732.213,1223.193 721.426,1223.193 725.045,1194.967 
			728.594,1194.967 		"/>
		<g>
			<path fill-rule="evenodd" clip-rule="evenodd" fill="#DFDFE1" d="M696.798,1206.236c-1.591,0-2.884-1.293-2.884-2.884v-30.751
				c0-1.589,1.293-2.884,2.884-2.884h60.043c1.591,0,2.884,1.295,2.884,2.884v30.751c0,1.591-1.293,2.884-2.884,2.884H696.798z"/>
			<path fill-rule="evenodd" clip-rule="evenodd" fill="#CBCCCC" d="M696.798,1204.619c-0.698,0-1.267-0.568-1.267-1.267v-30.751
				c0-0.698,0.568-1.266,1.267-1.266h60.043c0.698,0,1.267,0.567,1.267,1.266v30.751c0,0.698-0.568,1.267-1.267,1.267H696.798z"/>
			<g>
				<rect x="734.531" y="1172.403" fill-rule="evenodd" clip-rule="evenodd" fill="#ECF8FE" width="11.713" height="7.863"/>
				<rect x="707.396" y="1172.403" fill-rule="evenodd" clip-rule="evenodd" fill="#ECF8FE" width="11.713" height="7.863"/>
				<rect x="720.963" y="1182.12" fill-rule="evenodd" clip-rule="evenodd" fill="#ECF8FE" width="11.713" height="11.714"/>
				<path fill-rule="evenodd" clip-rule="evenodd" fill="#ECF8FE" d="M748.098,1180.267h8.725v-5.581
					c0-1.26-1.021-2.282-2.281-2.282h-6.443V1180.267z"/>
				<rect x="707.396" y="1195.688" fill-rule="evenodd" clip-rule="evenodd" fill="#ECF8FE" width="11.713" height="7.863"/>
				<rect x="707.396" y="1182.12" fill-rule="evenodd" clip-rule="evenodd" fill="#ECF8FE" width="11.713" height="11.714"/>
				<rect x="696.816" y="1182.12" fill-rule="evenodd" clip-rule="evenodd" fill="#ECF8FE" width="8.726" height="11.714"/>
				<rect x="720.963" y="1172.403" fill-rule="evenodd" clip-rule="evenodd" fill="#ECF8FE" width="11.713" height="7.863"/>
				<path fill-rule="evenodd" clip-rule="evenodd" fill="#ECF8FE" d="M705.542,1180.267v-7.863h-6.443
					c-1.26,0-2.282,1.022-2.282,2.282v5.581H705.542z"/>
				<path fill-rule="evenodd" clip-rule="evenodd" fill="#ECF8FE" d="M705.542,1195.688h-8.726v5.581
					c0,1.26,1.022,2.282,2.282,2.282h6.443V1195.688z"/>
				<path fill-rule="evenodd" clip-rule="evenodd" fill="#ECF8FE" d="M748.098,1195.688v7.863h6.443c1.26,0,2.281-1.022,2.281-2.282
					v-5.581H748.098z"/>
				<rect x="734.531" y="1182.12" fill-rule="evenodd" clip-rule="evenodd" fill="#ECF8FE" width="11.713" height="11.714"/>
				<rect x="734.531" y="1195.688" fill-rule="evenodd" clip-rule="evenodd" fill="#ECF8FE" width="11.713" height="7.863"/>
				<rect x="720.963" y="1195.688" fill-rule="evenodd" clip-rule="evenodd" fill="#ECF8FE" width="11.713" height="7.863"/>
				<rect x="748.098" y="1182.12" fill-rule="evenodd" clip-rule="evenodd" fill="#ECF8FE" width="8.725" height="11.714"/>
			</g>
		</g>
	</g>
	<polygon fill-rule="evenodd" clip-rule="evenodd" fill="#CBCCCC" points="723.046,1210.561 730.593,1210.561 730.039,1206.236 
		723.601,1206.236 	"/>
</g>
<g>
	<g>
		<polygon fill-rule="evenodd" clip-rule="evenodd" fill="#DFDFE1" points="843.705,1195.218 836.088,1195.218 838.645,1175.285 
			841.149,1175.285 		"/>
		<g>
			<path fill-rule="evenodd" clip-rule="evenodd" fill="#DFDFE1" d="M818.697,1183.242c-1.123,0-2.037-0.912-2.037-2.036v-21.715
				c0-1.122,0.914-2.036,2.037-2.036h42.399c1.124,0,2.037,0.914,2.037,2.036v21.715c0,1.124-0.913,2.036-2.037,2.036H818.697z"/>
			<path fill-rule="evenodd" clip-rule="evenodd" fill="#CBCCCC" d="M818.697,1182.101c-0.494,0-0.895-0.401-0.895-0.895v-21.715
				c0-0.493,0.4-0.894,0.895-0.894h42.399c0.493,0,0.896,0.4,0.896,0.894v21.715c0,0.493-0.402,0.895-0.896,0.895H818.697z"/>
			<g>
				<rect x="845.342" y="1159.352" fill-rule="evenodd" clip-rule="evenodd" fill="#ECF8FE" width="8.271" height="5.552"/>
				<rect x="826.181" y="1159.352" fill-rule="evenodd" clip-rule="evenodd" fill="#ECF8FE" width="8.271" height="5.552"/>
				<rect x="835.762" y="1166.213" fill-rule="evenodd" clip-rule="evenodd" fill="#ECF8FE" width="8.271" height="8.271"/>
				<path fill-rule="evenodd" clip-rule="evenodd" fill="#ECF8FE" d="M854.923,1164.903h6.161v-3.94c0-0.89-0.722-1.611-1.611-1.611
					h-4.55V1164.903z"/>
				<rect x="826.181" y="1175.794" fill-rule="evenodd" clip-rule="evenodd" fill="#ECF8FE" width="8.271" height="5.553"/>
				<rect x="826.181" y="1166.213" fill-rule="evenodd" clip-rule="evenodd" fill="#ECF8FE" width="8.271" height="8.271"/>
				<rect x="818.71" y="1166.213" fill-rule="evenodd" clip-rule="evenodd" fill="#ECF8FE" width="6.161" height="8.271"/>
				<rect x="835.762" y="1159.352" fill-rule="evenodd" clip-rule="evenodd" fill="#ECF8FE" width="8.271" height="5.552"/>
				<path fill-rule="evenodd" clip-rule="evenodd" fill="#ECF8FE" d="M824.871,1164.903v-5.552h-4.549
					c-0.891,0-1.612,0.722-1.612,1.611v3.94H824.871z"/>
				<path fill-rule="evenodd" clip-rule="evenodd" fill="#ECF8FE" d="M824.871,1175.794h-6.161v3.94
					c0,0.891,0.722,1.612,1.612,1.612h4.549V1175.794z"/>
				<path fill-rule="evenodd" clip-rule="evenodd" fill="#ECF8FE" d="M854.923,1175.794v5.553h4.55c0.89,0,1.611-0.722,1.611-1.612
					v-3.94H854.923z"/>
				<rect x="845.342" y="1166.213" fill-rule="evenodd" clip-rule="evenodd" fill="#ECF8FE" width="8.271" height="8.271"/>
				<rect x="845.342" y="1175.794" fill-rule="evenodd" clip-rule="evenodd" fill="#ECF8FE" width="8.271" height="5.553"/>
				<rect x="835.762" y="1175.794" fill-rule="evenodd" clip-rule="evenodd" fill="#ECF8FE" width="8.271" height="5.553"/>
				<rect x="854.923" y="1166.213" fill-rule="evenodd" clip-rule="evenodd" fill="#ECF8FE" width="6.161" height="8.271"/>
			</g>
		</g>
	</g>
	<polygon fill-rule="evenodd" clip-rule="evenodd" fill="#CBCCCC" points="837.232,1186.297 842.562,1186.297 842.17,1183.242 
		837.623,1183.242 	"/>
</g>
<g>
	<g>
		<path fill-rule="evenodd" clip-rule="evenodd" fill="#A2B14A" d="M939.952,1242.626c0,9.511,1.224,18.729,3.534,27.521h299.27
			c0.077-1.491,0.115-3.007,0.115-4.521c0-10.829-2.021-21.193-5.689-30.722c-12.344-32.117-43.491-54.902-79.963-54.902
			c-6.343,0-12.516,0.697-18.472,2.017c-17.272-25.657-45.201-43.529-77.438-47.274c-4.169-0.486-8.42-0.738-12.708-0.738
			C988.589,1134.005,939.952,1182.642,939.952,1242.626z"/>
	</g>
	<g>
		<path fill-rule="evenodd" clip-rule="evenodd" fill="#A2B14A" d="M976.109,1252.699c0,6.029-0.777,11.874-2.242,17.451H784.12
			c-0.05-0.949-0.077-1.91-0.077-2.869c0-6.866,1.279-13.438,3.608-19.479c7.827-20.366,27.577-34.812,50.698-34.812
			c4.023,0,7.934,0.44,11.713,1.277c10.957-16.269,28.66-27.6,49.1-29.976c2.647-0.306,5.34-0.466,8.059-0.466
			C945.27,1183.827,976.109,1214.663,976.109,1252.699z"/>
	</g>
</g>
<g>
	<g>
		<path fill-rule="evenodd" clip-rule="evenodd" fill="#A2B14A" d="M1703.047,1248.447c0,7.5-0.963,14.771-2.785,21.704h-236.023
			c-0.06-1.178-0.092-2.371-0.092-3.565c0-8.542,1.592-16.715,4.487-24.23c9.733-25.332,34.3-43.302,63.061-43.302
			c5.004,0,9.872,0.553,14.569,1.593c13.625-20.235,35.649-34.332,61.072-37.285c3.293-0.384,6.644-0.582,10.027-0.582
			C1664.69,1162.779,1703.047,1201.135,1703.047,1248.447z"/>
		<path fill-rule="evenodd" clip-rule="evenodd" fill="#B3C455" d="M1691.607,1206.647c-12.488,27.443-41.173,46.653-74.587,46.653
			c-14.802,0-28.668-3.798-40.622-10.38c-11.954,6.582-25.838,10.38-40.639,10.38c-15.198,0-29.418-3.979-41.587-10.945
			c9.734-25.332,34.302-43.302,63.063-43.302c5.004,0,9.872,0.553,14.57,1.593c13.624-20.235,35.648-34.332,61.072-37.285
			C1659.1,1166.62,1681.077,1183.473,1691.607,1206.647z"/>
	</g>
	<path fill-rule="evenodd" clip-rule="evenodd" fill="#BDCC6E" d="M1657.77,1185.959c-3.823-4.346-8.519-8.016-13.637-10.708
		c-3.94-2.07-9.436-1.133-11.648,3.055c-2.075,3.93-1.153,9.437,3.055,11.648c1.065,0.562,2.116,1.149,3.133,1.796
		c0.452,0.288,0.899,0.584,1.338,0.888c0.125,0.087,0.609,0.456,0.832,0.617c1.756,1.448,3.38,3.032,4.886,4.743
		c2.951,3.355,9.066,3.239,12.042,0C1661.054,1194.421,1660.915,1189.537,1657.77,1185.959z"/>
	<path fill-rule="evenodd" clip-rule="evenodd" fill="#BDCC6E" d="M1620.313,1167.225c-1.477-1.476-3.898-2.588-6.02-2.494
		c-2.203,0.099-4.485,0.823-6.022,2.494c-1.527,1.666-2.491,3.713-2.491,6.021v0.85c0,2.184,0.948,4.477,2.491,6.021
		c1.479,1.477,3.9,2.589,6.022,2.494c2.2-0.099,4.484-0.822,6.02-2.494c1.529-1.666,2.493-3.713,2.493-6.021v-0.85
		C1622.806,1171.062,1621.858,1168.769,1620.313,1167.225z"/>
</g>
<g>
	<g>
		<path fill-rule="evenodd" clip-rule="evenodd" fill="#A2B14A" d="M1711.992,1257.323c0,4.432,0.57,8.728,1.647,12.825h139.463
			c0.035-0.695,0.054-1.402,0.054-2.107c0-5.048-0.941-9.877-2.651-14.316c-5.753-14.968-20.268-25.586-37.264-25.586
			c-2.956,0-5.833,0.325-8.608,0.939c-8.049-11.956-21.063-20.285-36.087-22.03c-1.943-0.227-3.924-0.344-5.922-0.344
			C1734.657,1206.704,1711.992,1229.369,1711.992,1257.323z"/>
	</g>
	<g>
		<path fill-rule="evenodd" clip-rule="evenodd" fill="#A2B14A" d="M1737.215,1257.977c0,4.207-0.543,8.284-1.564,12.174h-132.362
			c-0.035-0.662-0.053-1.332-0.053-2.001c0-4.79,0.891-9.375,2.516-13.587c5.461-14.208,19.237-24.284,35.365-24.284
			c2.808,0,5.535,0.307,8.172,0.892c7.643-11.35,19.991-19.254,34.25-20.91c1.847-0.213,3.725-0.326,5.622-0.326
			C1715.701,1209.934,1737.215,1231.444,1737.215,1257.977z"/>
	</g>
</g>
<g>
	<rect x="851.621" y="1249.747" fill-rule="evenodd" clip-rule="evenodd" fill="#8F4F2E" width="9.783" height="28.268"/>
	<rect x="987" y="1249.747" fill-rule="evenodd" clip-rule="evenodd" fill="#8F4F2E" width="9.783" height="28.268"/>
	<rect x="865.323" y="1200.101" fill-rule="evenodd" clip-rule="evenodd" fill="#BC6730" width="9.784" height="70.075"/>
	<rect x="973.297" y="1200.101" fill-rule="evenodd" clip-rule="evenodd" fill="#BC6730" width="9.783" height="70.075"/>
	<rect x="851.621" y="1246.718" fill-rule="evenodd" clip-rule="evenodd" fill="#A05831" width="145.162" height="6.06"/>
	<polygon fill-rule="evenodd" clip-rule="evenodd" fill="#BC6730" points="851.621,1246.718 865.323,1240.449 983.08,1240.449 
		996.783,1246.718 	"/>
	<g>
		<rect x="865.323" y="1206.806" fill-rule="evenodd" clip-rule="evenodd" fill="#A05831" width="117.757" height="6.06"/>
		<circle fill-rule="evenodd" clip-rule="evenodd" fill="#8F4F2E" cx="870.215" cy="1209.835" r="1.147"/>
		<circle fill-rule="evenodd" clip-rule="evenodd" fill="#8F4F2E" cx="978.188" cy="1209.835" r="1.147"/>
	</g>
	<g>
		<rect x="865.323" y="1217.873" fill-rule="evenodd" clip-rule="evenodd" fill="#A05831" width="117.757" height="6.061"/>
		<circle fill-rule="evenodd" clip-rule="evenodd" fill="#8F4F2E" cx="870.215" cy="1220.903" r="1.147"/>
		<circle fill-rule="evenodd" clip-rule="evenodd" fill="#8F4F2E" cx="978.188" cy="1220.903" r="1.147"/>
	</g>
	<g>
		<rect x="865.323" y="1228.942" fill-rule="evenodd" clip-rule="evenodd" fill="#A05831" width="117.757" height="6.06"/>
		<circle fill-rule="evenodd" clip-rule="evenodd" fill="#8F4F2E" cx="870.215" cy="1231.973" r="1.147"/>
		<circle fill-rule="evenodd" clip-rule="evenodd" fill="#8F4F2E" cx="978.188" cy="1231.973" r="1.147"/>
	</g>
</g>
<g>
	<rect x="1611.961" y="1199.383" fill-rule="evenodd" clip-rule="evenodd" fill="#FFFBFD" width="9.908" height="70.876"/>
	<path fill-rule="evenodd" clip-rule="evenodd" fill="#FFFBFD" d="M1613.81,1192.984h-80.144l6.269-117.61h67.607L1613.81,1192.984
		L1613.81,1192.984z M1525.383,1199.412h96.709l-6.953-130.466h-82.802L1525.383,1199.412z"/>
	<path fill-rule="evenodd" clip-rule="evenodd" fill="#FFFBFD" d="M1606.487,1068.946h-65.499l18.221-89.749h29.056
		L1606.487,1068.946L1606.487,1068.946z M1531.282,1076.879h84.911l-21.444-105.613h-42.024L1531.282,1076.879z"/>
	<path fill-rule="evenodd" clip-rule="evenodd" fill="#FFFBFD" d="M1586.242,971.266h-25.01l10.945-38.128h3.12L1586.242,971.266
		L1586.242,971.266z M1550.703,979.197h46.069l-15.499-53.992h-15.072L1550.703,979.197z"/>
	<rect x="1571.424" y="930.183" fill-rule="evenodd" clip-rule="evenodd" fill="#FFFBFD" width="4.628" height="46.06"/>
	
		<rect x="1507.679" y="1022.089" transform="matrix(-0.4931 0.8699 -0.8699 -0.4931 3225.8975 168.6401)" fill-rule="evenodd" clip-rule="evenodd" fill="#FFFBFD" width="112.284" height="3.966"/>
	
		<rect x="1581.671" y="967.931" transform="matrix(-0.8699 0.4932 -0.4932 -0.8699 3466.3721 1133.8866)" fill-rule="evenodd" clip-rule="evenodd" fill="#FFFBFD" width="3.966" height="112.283"/>
	<path fill-rule="evenodd" clip-rule="evenodd" fill="#BCBEC0" d="M1594.813,980.19c-14.051,0-28.102,0-42.151,0
		c-6.395,0-6.395-9.917,0-9.917c14.05-0.001,28.101,0,42.151,0C1601.207,970.272,1601.207,980.19,1594.813,980.19z"/>
	<polygon fill-rule="evenodd" clip-rule="evenodd" fill="#FFFBFD" points="1532.147,1197.334 1613.964,1073.296 1608.717,1071.023 
		1526.9,1195.062 	"/>
	<path fill-rule="evenodd" clip-rule="evenodd" fill="#596161" d="M1585.494,1200.762c-27.271,0-54.544,0-81.815,0
		c-6.395,0-6.395-9.916,0-9.916c27.271-0.001,54.544,0,81.815,0C1591.889,1190.845,1591.89,1200.762,1585.494,1200.762z"/>
	<polygon fill-rule="evenodd" clip-rule="evenodd" fill="#FFFBFD" points="1615.327,1197.334 1620.575,1195.062 1538.759,1071.023 
		1533.512,1073.296 	"/>
	<path fill-rule="evenodd" clip-rule="evenodd" fill="#BCBEC0" d="M1614.645,1077.871c-27.271,0-54.544,0-81.815,0
		c-6.394,0-6.394-9.917,0-9.917c27.271-0.001,54.545,0,81.816,0C1621.04,1067.953,1621.04,1077.871,1614.645,1077.871z"/>
	<polygon fill-rule="evenodd" clip-rule="evenodd" fill="#F26924" points="1733.093,865.781 1756.208,893.24 1729.012,893.24 
		1705.896,865.781 1706.72,864.81 1729.012,838.334 1756.208,838.334 1733.916,864.81 	"/>
	<polygon fill-rule="evenodd" clip-rule="evenodd" fill="#F9A050" points="1760.289,865.781 1783.403,893.24 1756.208,893.24 
		1733.093,865.781 1733.916,864.81 1756.208,838.334 1783.403,838.334 1761.112,864.81 	"/>
	<path fill-rule="evenodd" clip-rule="evenodd" fill="#BCBEC0" d="M1620.595,1200.839c-30.903,0-61.807,0-92.71,0
		c-0.335,0-0.67,0-1.005,0c-6.395,0-6.395-9.916,0-9.916c30.903,0,61.807,0,92.711,0c0.334,0,0.67,0,1.005,0
		C1626.989,1190.923,1626.989,1200.839,1620.595,1200.839z"/>
	<path fill-rule="evenodd" clip-rule="evenodd" fill="#FFFBFD" d="M1584.437,805.372c33.312,0,60.412,27.102,60.412,60.413
		c0,33.311-27.101,60.412-60.412,60.412c-33.311-0.001-60.412-27.101-60.412-60.412
		C1524.024,832.473,1551.126,805.373,1584.437,805.372L1584.437,805.372z M1584.437,932.146c36.592,0,66.361-29.769,66.361-66.36
		s-29.77-66.361-66.361-66.361s-66.362,29.77-66.362,66.361S1547.845,932.146,1584.437,932.146z"/>
	<rect x="1590.717" y="862.811" fill-rule="evenodd" clip-rule="evenodd" fill="#FFFBFD" width="118.952" height="5.949"/>
	<path fill-rule="evenodd" clip-rule="evenodd" fill="#F26924" d="M1599.612,840.85l34.125-51.059
		c2.336-3.495,7.147-4.346,10.493-1.801c6.299,4.79,11.998,10.328,16.966,16.48c2.725,3.375,2.012,8.348-1.594,10.758l-50.857,33.99
		C1606.346,845.811,1603.229,842.949,1599.612,840.85z"/>
	<path fill-rule="evenodd" clip-rule="evenodd" fill="#F26924" d="M1613.989,865.784c0-2.837-0.418-5.576-1.182-8.165l60.334-11.994
		c4.117-0.818,8.096,1.977,8.695,6.133c0.66,4.58,1.002,9.264,1.002,14.027c0,3.462-0.182,6.883-0.535,10.252
		c-0.446,4.266-4.513,7.195-8.72,6.359l-59.98-11.924C1613.854,868.946,1613.989,867.382,1613.989,865.784z"/>
	<path fill-rule="evenodd" clip-rule="evenodd" fill="#F26924" d="M1585.169,836.966c-2.09,0-4.128,0.228-6.091,0.651
		l-11.945-60.086c-0.831-4.182,2.062-8.209,6.296-8.717c3.85-0.461,7.768-0.699,11.74-0.699c3.975,0,7.893,0.238,11.742,0.699
		c4.234,0.508,7.128,4.535,6.296,8.717l-11.944,60.086C1589.299,837.193,1587.261,836.967,1585.169,836.966z"/>
	<path fill-rule="evenodd" clip-rule="evenodd" fill="#F26924" d="M1561.595,849.219l-50.857-33.991
		c-3.605-2.409-4.317-7.382-1.594-10.757c4.969-6.153,10.667-11.69,16.967-16.48c3.346-2.545,8.157-1.693,10.492,1.801
		l34.125,51.059C1567.11,842.949,1563.995,845.811,1561.595,849.219z"/>
	<path fill-rule="evenodd" clip-rule="evenodd" fill="#F9A050" d="M1497.198,845.625l60.334,11.994
		c-0.765,2.589-1.181,5.328-1.181,8.166c-0.001,1.596,0.136,3.161,0.385,4.688l-59.979,11.924c-4.207,0.836-8.273-2.094-8.721-6.359
		c-0.353-3.369-0.536-6.79-0.536-10.252c0-4.764,0.343-9.446,1.004-14.027C1489.103,847.602,1493.08,844.807,1497.198,845.625z"/>
	<path fill-rule="evenodd" clip-rule="evenodd" fill="#F9A050" d="M1569.012,889.649l-34.006,50.883
		c-2.372,3.55-7.284,4.36-10.623,1.701c-6.502-5.177-12.326-11.163-17.323-17.81c-2.521-3.354-1.67-8.145,1.817-10.475
		l51.107-34.157C1562.186,883.742,1565.285,887.122,1569.012,889.649z"/>
	<path fill-rule="evenodd" clip-rule="evenodd" fill="#F26924" d="M1610.354,879.792l51.108,34.157
		c3.487,2.33,4.338,7.121,1.817,10.475c-4.997,6.646-10.821,12.633-17.322,17.81c-3.34,2.659-8.252,1.849-10.623-1.701
		l-34.008-50.883C1605.054,887.122,1608.154,883.742,1610.354,879.792z"/>
	<path fill-rule="evenodd" clip-rule="evenodd" fill="#F9A050" d="M1585.169,894.604c2.338,0,4.608-0.285,6.785-0.811l11.959,60.159
		c0.824,4.146-2.012,8.162-6.204,8.702c-4.105,0.526-8.29,0.8-12.54,0.8c-4.247,0-8.433-0.273-12.537-0.8
		c-4.192-0.54-7.029-4.557-6.205-8.702l11.959-60.16C1580.563,894.318,1582.833,894.604,1585.169,894.604z"/>
	<circle fill-rule="evenodd" clip-rule="evenodd" fill="#F9A050" cx="1585.17" cy="865.785" r="17.341"/>
</g>
<g>
	<polygon fill-rule="evenodd" clip-rule="evenodd" fill="#FBB56F" points="1555.92,1270.26 1256.544,1270.26 1256.544,1121.147 
		1406.232,975.406 1555.92,1121.147 	"/>
	<rect x="1081.731" y="998.725" fill-rule="evenodd" clip-rule="evenodd" fill="#A05831" width="38.353" height="78.504"/>
	<g>
		<polygon fill-rule="evenodd" clip-rule="evenodd" fill="#FFE0A8" points="1332.556,1270.26 1033.18,1270.26 1033.18,1121.147 
			1182.867,975.406 1332.556,1121.147 		"/>
		<path fill-rule="evenodd" clip-rule="evenodd" fill="#8F4F2E" d="M1362.624,1132.168
			c-56.058-54.581-112.116-109.161-168.174-163.74c-6.402-6.232-16.746-6.251-23.165,0
			c-56.058,54.579-112.117,109.159-168.176,163.74c-15.131,14.732,8.043,37.887,23.165,23.163
			c56.059-54.58,112.116-109.16,168.176-163.74c-7.723,0-15.443,0-23.165,0c56.059,54.58,112.117,109.16,168.175,163.74
			C1354.575,1170.047,1377.763,1146.906,1362.624,1132.168z"/>
	</g>
	<rect x="1075.577" y="977.349" fill-rule="evenodd" clip-rule="evenodd" fill="#8F4F2E" width="50.661" height="25.263"/>
	<g>
		<polygon fill-rule="evenodd" clip-rule="evenodd" fill="#A05831" points="1183.283,974.247 1351.459,1137.987 1574.823,1137.987 
			1406.647,974.247 		"/>
		<path fill-rule="evenodd" clip-rule="evenodd" fill="#A05831" d="M1171.29,991.587c48.688,47.404,97.375,94.808,146.063,142.212
			c14.532,14.148,23.139,26.325,44.178,26.325c38.374,0,76.747,0,115.12,0c32.586,0,65.171,0,97.757,0
			c14.038,0,21.8-18.001,11.578-27.953c-48.688-47.403-97.375-94.808-146.063-142.212c-14.533-14.149-23.14-26.324-44.179-26.324
			c-38.373,0-76.747,0-115.12,0c-32.586,0-65.171,0-97.757,0c-21.071,0-21.107,32.749,0,32.749c74.455,0,148.91,0,223.365,0
			c-3.859-1.6-7.719-3.198-11.578-4.797c56.059,54.58,112.116,109.16,168.175,163.741c3.859-9.317,7.719-18.635,11.578-27.952
			c-74.455,0-148.91,0-223.364,0c3.859,1.599,7.718,3.196,11.577,4.795c-56.059-54.58-112.116-109.16-168.175-163.74
			C1179.336,953.721,1156.156,976.854,1171.29,991.587z"/>
	</g>
	<path fill-rule="evenodd" clip-rule="evenodd" fill="#B78E6B" d="M1154.83,1128.123c0,3.539-2.869,6.407-6.407,6.407h-17.049
		c-3.538,0-6.406-2.868-6.406-6.407c0-3.538,2.868-6.406,6.406-6.406h17.049C1151.961,1121.717,1154.83,1124.585,1154.83,1128.123z"
		/>
	<path fill-rule="evenodd" clip-rule="evenodd" fill="#B78E6B" d="M1169.53,1144.673c0,3.473-2.815,6.287-6.287,6.287h-28.079
		c-3.473,0-6.287-2.814-6.287-6.287s2.814-6.288,6.287-6.288h28.079C1166.715,1138.385,1169.53,1141.2,1169.53,1144.673z"/>
	<path fill-rule="evenodd" clip-rule="evenodd" fill="#B78E6B" d="M1232.164,1073.582c0,3.645-2.954,6.6-6.598,6.6h-20.927
		c-3.645,0-6.6-2.955-6.6-6.6s2.955-6.599,6.6-6.599h20.927C1229.21,1066.983,1232.164,1069.938,1232.164,1073.582z"/>
	<path fill-rule="evenodd" clip-rule="evenodd" fill="#B78E6B" d="M1271.659,1216.213c0,3.485-2.825,6.311-6.31,6.311h-33.506
		c-3.485,0-6.311-2.825-6.311-6.311c0-3.484,2.825-6.31,6.311-6.31h33.506C1268.834,1209.903,1271.659,1212.729,1271.659,1216.213z"
		/>
	<path fill-rule="evenodd" clip-rule="evenodd" fill="#B78E6B" d="M1248.597,1230.857c0-4.389,3.559-7.948,7.948-7.948h7.166
		c4.39,0,7.948,3.56,7.948,7.948c0,4.39-3.559,7.948-7.948,7.948h-7.166C1252.155,1238.806,1248.597,1235.247,1248.597,1230.857z"/>
	<path fill-rule="evenodd" clip-rule="evenodd" fill="#B78E6B" d="M1088.979,1231.342c0,3.022-2.45,5.473-5.473,5.473h-25.017
		c-3.023,0-5.473-2.45-5.473-5.473s2.449-5.472,5.473-5.472h25.017C1086.528,1225.87,1088.979,1228.319,1088.979,1231.342z"/>
	<path fill-rule="evenodd" clip-rule="evenodd" fill="#B78E6B" d="M1088.979,1244.305c0,4.137-3.354,7.49-7.489,7.49h-9.256
		c-4.137,0-7.49-3.354-7.49-7.49s3.354-7.49,7.49-7.49h9.256C1085.625,1236.814,1088.979,1240.168,1088.979,1244.305z"/>
	<path fill-rule="evenodd" clip-rule="evenodd" fill="#B78E6B" d="M1216.643,1177.727v92.532h-70.926v-92.532
		c0-19.586,15.878-35.462,35.464-35.462C1200.765,1142.265,1216.643,1158.141,1216.643,1177.727z"/>
	<path fill-rule="evenodd" clip-rule="evenodd" fill="#8F4F2E" d="M1216.643,1177.727v92.532h-52.992v-92.532
		c0-16.487,11.252-30.347,26.497-34.317C1205.39,1147.38,1216.643,1161.239,1216.643,1177.727z"/>
	<rect x="1145.717" y="1258.495" fill-rule="evenodd" clip-rule="evenodd" fill="#FBB56F" width="17.934" height="11.764"/>
	<path fill-rule="evenodd" clip-rule="evenodd" fill="#B78E6B" d="M1120.451,1171.029v25.304h-52.993v-25.304
		c0-14.635,11.863-26.496,26.498-26.496C1108.589,1144.533,1120.451,1156.395,1120.451,1171.029z"/>
	<path fill-rule="evenodd" clip-rule="evenodd" fill="#8F4F2E" d="M1120.451,1171.029v25.304h-39.594v-25.304
		c0-12.319,8.407-22.675,19.798-25.642C1112.043,1148.354,1120.451,1158.71,1120.451,1171.029z"/>
	<path fill-rule="evenodd" clip-rule="evenodd" fill="#B78E6B" d="M1296.379,1171.029v25.304h-52.993v-25.304
		c0-14.635,11.864-26.496,26.498-26.496C1284.517,1144.533,1296.379,1156.395,1296.379,1171.029z"/>
	<path fill-rule="evenodd" clip-rule="evenodd" fill="#8F4F2E" d="M1296.379,1171.029v25.304h-39.594v-25.304
		c0-12.319,8.407-22.675,19.798-25.642C1287.972,1148.354,1296.379,1158.71,1296.379,1171.029z"/>
	<path fill-rule="evenodd" clip-rule="evenodd" fill="#B78E6B" d="M1376.128,1259.998c0,3.539-2.869,6.407-6.407,6.407h-17.048
		c-3.539,0-6.407-2.868-6.407-6.407c0-3.538,2.868-6.407,6.407-6.407h17.048C1373.259,1253.591,1376.128,1256.46,1376.128,1259.998z
		"/>
	<path fill-rule="evenodd" clip-rule="evenodd" fill="#B78E6B" d="M1404.133,1244.051c0,3.473-2.814,6.288-6.287,6.288h-28.078
		c-3.473,0-6.288-2.815-6.288-6.288s2.815-6.288,6.288-6.288h28.078C1401.318,1237.763,1404.133,1240.578,1404.133,1244.051z"/>
	<path fill-rule="evenodd" clip-rule="evenodd" fill="#B78E6B" d="M1380.314,1181.78c0,3.645-2.954,6.599-6.599,6.599h-20.926
		c-3.645,0-6.6-2.954-6.6-6.599s2.955-6.6,6.6-6.6h20.926C1377.36,1175.181,1380.314,1178.136,1380.314,1181.78z"/>
	<path fill-rule="evenodd" clip-rule="evenodd" fill="#B78E6B" d="M1543.069,1229.275c0,3.484-2.825,6.31-6.31,6.31h-33.506
		c-3.485,0-6.31-2.825-6.31-6.31s2.824-6.311,6.31-6.311h33.506C1540.244,1222.965,1543.069,1225.791,1543.069,1229.275z"/>
	<path fill-rule="evenodd" clip-rule="evenodd" fill="#B78E6B" d="M1520.007,1243.919c0-4.389,3.559-7.947,7.948-7.947h7.166
		c4.39,0,7.948,3.559,7.948,7.947c0,4.391-3.559,7.948-7.948,7.948h-7.166C1523.565,1251.867,1520.007,1248.31,1520.007,1243.919z"
		/>
	<path fill-rule="evenodd" clip-rule="evenodd" fill="#B78E6B" d="M1469.479,1175.398c0,3.022-2.451,5.473-5.473,5.473h-25.018
		c-3.022,0-5.473-2.45-5.473-5.473s2.45-5.472,5.473-5.472h25.018C1467.028,1169.927,1469.479,1172.376,1469.479,1175.398z"/>
	<path fill-rule="evenodd" clip-rule="evenodd" fill="#B78E6B" d="M1469.479,1188.361c0,4.137-3.354,7.49-7.49,7.49h-9.256
		c-4.137,0-7.49-3.354-7.49-7.49s3.354-7.49,7.49-7.49h9.256C1466.126,1180.871,1469.479,1184.225,1469.479,1188.361z"/>
</g>
<g>
	<g>
		<path fill-rule="evenodd" clip-rule="evenodd" fill="#A2B14A" d="M360.899,1260.203c0,3.438,0.442,6.769,1.277,9.945h108.146
			c0.028-0.539,0.042-1.087,0.042-1.634c0-3.914-0.729-7.658-2.056-11.102c-4.461-11.606-15.717-19.84-28.896-19.84
			c-2.291,0-4.522,0.251-6.675,0.728c-6.241-9.271-16.334-15.729-27.983-17.083c-1.507-0.176-3.043-0.267-4.593-0.267
			C378.475,1220.951,360.899,1238.526,360.899,1260.203z"/>
	</g>
	<g>
		<path fill-rule="evenodd" clip-rule="evenodd" fill="#A2B14A" d="M380.458,1260.711c0,3.262-0.421,6.423-1.212,9.439H276.605
			c-0.027-0.514-0.041-1.032-0.041-1.552c0-3.714,0.691-7.27,1.951-10.536c4.234-11.018,14.918-18.831,27.424-18.831
			c2.177,0,4.291,0.238,6.336,0.691c5.928-8.801,15.503-14.93,26.559-16.215c1.433-0.165,2.89-0.252,4.361-0.252
			C363.775,1223.456,380.458,1240.137,380.458,1260.711z"/>
	</g>
</g>
<g>
	<g>
		<path fill-rule="evenodd" clip-rule="evenodd" fill="#A2B14A" d="M548.281,1319.319c0,6.681,0.86,13.157,2.483,19.333h210.246
			c0.054-1.048,0.081-2.112,0.081-3.177c0-7.607-1.42-14.889-3.998-21.582c-8.672-22.563-30.553-38.571-56.176-38.571
			c-4.455,0-8.793,0.49-12.977,1.417c-12.135-18.025-31.756-30.581-54.402-33.212c-2.93-0.342-5.916-0.519-8.928-0.519
			C582.451,1243.009,548.281,1277.178,548.281,1319.319z"/>
	</g>
	<g>
		<path fill-rule="evenodd" clip-rule="evenodd" fill="#A2B14A" d="M573.684,1326.395c0,4.236-0.546,8.343-1.574,12.261H438.805
			c-0.035-0.667-0.053-1.342-0.053-2.016c0-4.824,0.897-9.441,2.533-13.685c5.5-14.308,19.375-24.456,35.617-24.456
			c2.827,0,5.574,0.31,8.229,0.897c7.697-11.43,20.134-19.39,34.494-21.059c1.86-0.215,3.751-0.328,5.661-0.328
			C552.018,1278.01,573.684,1299.674,573.684,1326.395z"/>
	</g>
</g>
<g>
	<g>
		<path fill-rule="evenodd" clip-rule="evenodd" fill="#A2B14A" d="M840.65,1326.836c0,4.084-0.523,8.042-1.516,11.816H710.641
			c-0.033-0.642-0.051-1.291-0.051-1.941c0-4.65,0.867-9.1,2.443-13.191c5.299-13.791,18.674-23.574,34.33-23.574
			c2.725,0,5.375,0.302,7.933,0.867c7.418-11.016,19.407-18.69,33.249-20.299c1.793-0.209,3.617-0.316,5.459-0.316
			C819.77,1280.197,840.65,1301.079,840.65,1326.836z"/>
		<path fill-rule="evenodd" clip-rule="evenodd" fill="#B3C455" d="M834.424,1304.08c-6.8,14.94-22.416,25.398-40.607,25.398
			c-8.058,0-15.607-2.067-22.115-5.65c-6.508,3.583-14.066,5.65-22.124,5.65c-8.274,0-16.016-2.166-22.641-5.959
			c5.3-13.791,18.675-23.574,34.333-23.574c2.724,0,5.374,0.302,7.932,0.867c7.417-11.016,19.408-18.69,33.248-20.299
			C816.726,1282.288,828.689,1291.463,834.424,1304.08z"/>
	</g>
	<path fill-rule="evenodd" clip-rule="evenodd" fill="#BDCC6E" d="M816.001,1292.816c-2.081-2.365-4.638-4.363-7.424-5.829
		c-2.146-1.127-5.137-0.617-6.341,1.663c-1.131,2.139-0.629,5.137,1.662,6.342c0.58,0.306,1.152,0.626,1.705,0.978
		c0.246,0.156,0.49,0.317,0.729,0.483c0.068,0.047,0.332,0.248,0.453,0.336c0.957,0.788,1.841,1.65,2.66,2.582
		c1.607,1.826,4.936,1.764,6.556,0C817.789,1297.424,817.714,1294.765,816.001,1292.816z"/>
	<path fill-rule="evenodd" clip-rule="evenodd" fill="#BDCC6E" d="M795.609,1282.617c-0.805-0.803-2.123-1.408-3.277-1.357
		c-1.199,0.054-2.441,0.448-3.279,1.357c-0.831,0.907-1.355,2.022-1.355,3.278v0.463c0,1.188,0.516,2.437,1.355,3.277
		c0.806,0.804,2.124,1.409,3.279,1.358c1.197-0.054,2.441-0.448,3.277-1.358c0.832-0.906,1.357-2.021,1.357-3.277v-0.463
		C796.967,1284.706,796.451,1283.458,795.609,1282.617z"/>
</g>
<path fill-rule="evenodd" clip-rule="evenodd" fill="#747C3C" d="M1458.215,1283.254c3.034,0,4.551,0,4.551,0
	c0.376-3.817-0.845-7.62-3.372-10.505c-2.528-2.885-6.137-4.595-9.971-4.724C1454.135,1271.841,1457.267,1277.266,1458.215,1283.254
	z"/>
<path fill-rule="evenodd" clip-rule="evenodd" fill="#88905D" d="M1465.677,1283.254c-3.034,0-4.551,0-4.551,0
	c-0.377-3.817,0.845-7.62,3.372-10.505s6.137-4.595,9.97-4.724C1469.757,1271.841,1466.624,1277.266,1465.677,1283.254z"/>
<path fill-rule="evenodd" clip-rule="evenodd" fill="#FFFFFF" d="M2049.821,698.943l-74.26-8.91h-0.008
	c-8.291-7.434-22.434-12.335-38.499-12.335c-3.977,0-7.815,0.331-11.499,0.896c-1.854-17.885-26.634-32.059-57.016-32.059
	c-6.239,0-12.229,0.617-17.85,1.721c0.048-0.574,0.146-1.141,0.146-1.721c0-18.887-25.608-34.199-57.197-34.199
	c-29.94,0-54.468,13.763-56.949,31.279c-27.755,1.105-50.097,14.01-53.021,30.42c-8.602-3.094-18.639-4.906-29.409-4.906
	c-22.18,0-41.37,7.563-50.858,18.596h-0.035l-72.157,11.26c-6.144,0.959-4.983,6.369,1.366,6.369h64.658h386.077h65.446
	C2055.291,705.354,2056.229,699.713,2049.821,698.943z"/>
<path fill-rule="evenodd" clip-rule="evenodd" fill="#FFFFFF" d="M758.68,796.575c0,0,0.051,0,0.054,0
	c5.179-9.89,17.75-16.892,32.5-16.892c7.67,0,14.707,1.94,20.479,5.144c3.603-8.195,13.199-14.183,24.846-14.946
	c2.292-16.689,20.49-29.742,42.863-29.742c22.926,0,41.498,13.694,43.028,30.975c9.942,2.469,17.947,8.152,21.786,15.549
	c6.213-4.293,14.355-6.979,23.377-6.979c14.709,0,27.257,6.959,32.465,16.803c1.114,0.027,2.047,0.058,2.6,0.089
	c7.143,0.413,16.787,4.423,24.913,8.497c5.316,2.666,2.874,8.99-3.478,8.99h-16.391c-2.156,0-4.291,0-6.598,0H885.27
	c-20.469,0-41.021,0-60.523,0h-67.024c-6.704,0-12.827,0-18.261,0C722.891,814.063,758.68,796.575,758.68,796.575z"/>
<path fill-rule="evenodd" clip-rule="evenodd" fill="#FFFFFF" d="M615.907,629.724h0.024c2.428-4.634,8.317-7.915,15.229-7.915
	c3.594,0,6.891,0.91,9.596,2.41c1.688-3.84,6.185-6.645,11.642-7.003c1.073-7.819,9.601-13.937,20.084-13.937
	c10.742,0,19.444,6.417,20.161,14.514c4.658,1.157,8.409,3.82,10.207,7.285c2.912-2.011,6.727-3.27,10.954-3.27
	c6.892,0,12.771,3.261,15.212,7.873c0.521,0.014,0.959,0.027,1.218,0.042c3.347,0.193,7.865,2.072,11.673,3.981
	c2.49,1.249,1.347,4.212-1.629,4.212h-7.68c-1.011,0-2.012,0-3.092,0h-54.284c-9.591,0-19.222,0-28.358,0h-31.405
	c-3.142,0-6.01,0-8.556,0C599.139,637.917,615.907,629.724,615.907,629.724z"/>
<path fill-rule="evenodd" clip-rule="evenodd" fill="#747C3C" d="M1314.384,1338.33c5.718,0,8.576,0,8.576,0
	c0.709-7.194-1.591-14.362-6.355-19.8c-4.764-5.437-11.566-8.66-18.792-8.902C1306.693,1316.818,1312.597,1327.043,1314.384,1338.33
	z"/>
<path fill-rule="evenodd" clip-rule="evenodd" fill="#88905D" d="M1328.447,1338.33c-5.718,0-8.577,0-8.577,0
	c-0.709-7.194,1.592-14.362,6.355-19.8c4.765-5.437,11.567-8.66,18.793-8.902C1336.138,1316.818,1330.233,1327.043,1328.447,1338.33
	z"/>
<path fill-rule="evenodd" clip-rule="evenodd" fill="#747C3C" d="M995.87,1280.027c1.567,0,2.352,0,2.352,0
	c0.194-1.973-0.437-3.938-1.743-5.429c-1.306-1.49-3.171-2.374-5.151-2.44C993.762,1274.13,995.381,1276.933,995.87,1280.027z"/>
<path fill-rule="evenodd" clip-rule="evenodd" fill="#88905D" d="M999.726,1280.027c-1.567,0-2.352,0-2.352,0
	c-0.194-1.973,0.437-3.938,1.743-5.429c1.306-1.49,3.17-2.374,5.151-2.44C1001.834,1274.13,1000.215,1276.933,999.726,1280.027z"/>
<path fill-rule="evenodd" clip-rule="evenodd" fill="#747C3C" d="M873.577,1300.01c2.346,0,3.519,0,3.519,0
	c0.29-2.95-0.653-5.89-2.607-8.12s-4.744-3.552-7.707-3.651C870.424,1291.188,872.845,1295.381,873.577,1300.01z"/>
<path fill-rule="evenodd" clip-rule="evenodd" fill="#88905D" d="M879.346,1300.01c-2.346,0-3.519,0-3.519,0
	c-0.29-2.95,0.653-5.89,2.607-8.12s4.744-3.552,7.708-3.651C882.5,1291.188,880.078,1295.381,879.346,1300.01z"/>
<path fill-rule="evenodd" clip-rule="evenodd" fill="#747C3C" d="M1689.388,1297.38c1.568,0,2.352,0,2.352,0
	c0.194-1.973-0.437-3.938-1.742-5.429c-1.307-1.49-3.171-2.374-5.152-2.44C1687.279,1291.482,1688.898,1294.285,1689.388,1297.38z"
	/>
<path fill-rule="evenodd" clip-rule="evenodd" fill="#88905D" d="M1693.243,1297.38c-1.567,0-2.352,0-2.352,0
	c-0.194-1.973,0.437-3.938,1.743-5.429c1.306-1.49,3.171-2.374,5.151-2.44C1695.352,1291.482,1693.733,1294.285,1693.243,1297.38z"
	/>
<path fill-rule="evenodd" clip-rule="evenodd" fill="#747C3C" d="M353.457,1307.737c1.566,0,2.351,0,2.351,0
	c0.194-1.973-0.437-3.938-1.742-5.429c-1.306-1.49-3.171-2.374-5.152-2.44C351.348,1301.84,352.967,1304.643,353.457,1307.737z"/>
<path fill-rule="evenodd" clip-rule="evenodd" fill="#88905D" d="M357.313,1307.737c-1.568,0-2.352,0-2.352,0
	c-0.195-1.973,0.436-3.938,1.742-5.429c1.307-1.49,3.17-2.374,5.151-2.44C359.42,1301.84,357.802,1304.643,357.313,1307.737z"/>
<circle opacity="0.23" fill-rule="evenodd" clip-rule="evenodd" fill="#FFFFFF" cx="1514.582" cy="303.137" r="132.124"/>
<g>
	<path fill-rule="evenodd" clip-rule="evenodd" fill="#D4EAD0" d="M1609.324,353.433c-1.464,2.759-3.032,5.431-4.696,7.997
		c-4.002,6.203-8.565,11.863-13.581,16.96c-0.933,0.944-1.881,1.882-2.846,2.788c-3.956,3.746-8.184,7.155-12.619,10.206
		c-1.04,0.728-2.09,1.428-3.16,2.106c-14.205,9.084-30.376,14.687-47.085,16.381c-2.384,0.238-4.783,0.405-7.181,0.486
		c-18.139,0.623-36.684-3.354-53.871-12.479c-32.952-17.492-53.049-49.721-56.47-84.252c-0.146-1.486-0.263-2.988-0.35-4.484
		c-0.46-8.122,0.003-16.346,1.438-24.492c0.217-1.24,0.451-2.49,0.719-3.725c1.412-6.666,3.467-13.271,6.228-19.725
		c1.197-2.824,2.527-5.613,3.987-8.363c2.154-4.057,4.529-7.923,7.124-11.576c0.727-1.043,1.473-2.065,2.24-3.066
		c3.072-4.064,6.409-7.86,9.959-11.371c0.949-0.936,1.915-1.863,2.904-2.756c32.54-29.854,81.587-37.563,122.813-15.676
		c26.008,13.807,44.021,36.804,52.112,62.863c0.527,1.677,1.004,3.369,1.447,5.066c1.595,6.167,2.65,12.478,3.124,18.855
		c0.092,1.262,0.164,2.525,0.213,3.787c0.523,12.842-1.272,25.883-5.56,38.513c-0.407,1.214-0.841,2.413-1.294,3.612
		C1613.338,345.268,1611.475,349.383,1609.324,353.433z"/>
	<path fill-rule="evenodd" clip-rule="evenodd" fill="#FBF7C4" d="M1604.628,361.43c-4.002,6.203-8.565,11.863-13.581,16.96
		c-5.67,5.78-11.93,10.83-18.625,15.101c-14.205,9.084-30.376,14.687-47.085,16.381c-20.384,2.075-41.592-1.66-61.052-11.992
		c-34.377-18.248-54.76-52.531-56.819-88.736c-0.46-8.122,0.003-16.346,1.438-24.492c1.383-7.93,3.677-15.793,6.946-23.449
		c1.479-2.279,3.031-4.496,4.658-6.631c3.072-4.064,6.409-7.86,9.96-11.371c32.476-32.122,83.251-40.977,125.718-18.432
		c27.685,14.697,46.301,39.798,53.559,67.93c1.595,6.167,2.651,12.477,3.124,18.854c1.156,15.272-0.954,30.929-6.64,45.913
		C1605.729,358.789,1605.194,360.118,1604.628,361.43z"/>
	<g>
		<path fill-rule="evenodd" clip-rule="evenodd" fill="#D4EAD0" d="M1621.563,295.178l-14.975-7.95
			c-2.373-1.26-5.031-1.436-7.414-0.712c-2.38,0.736-4.482,2.37-5.742,4.744c-2.52,4.745-8.411,6.55-13.156,4.03l-65.817-34.94
			c-2.373-1.26-4.008-3.363-4.744-5.742c-0.723-2.383-0.548-5.041,0.712-7.414c2.52-4.746,8.411-6.551,13.157-4.031l14.463,7.678
			c1.854,0.984,3.926,1.128,5.787,0.557c1.853-0.574,3.497-1.85,4.481-3.703c1.968-3.707,6.563-5.115,10.268-3.147l59.856,31.776
			C1620.033,282.489,1621.089,288.8,1621.563,295.178z"/>
		<path fill-rule="evenodd" clip-rule="evenodd" fill="#D4EAD0" d="M1516.304,284.973c-0.735,1.385-1.965,2.344-3.355,2.777
			c-1.398,0.428-2.955,0.322-4.346-0.416l-62.783-33.33c-1.502-0.797-2.074-2.671-1.278-4.172c0.401-0.754,0.46-1.594,0.228-2.352
			c-0.236-0.748-0.759-1.424-1.506-1.82l-14.061-7.465c3.072-4.064,6.409-7.86,9.959-11.371l50.198,26.649
			c2.313,1.229,3.195,4.104,1.967,6.418c-0.614,1.157-0.701,2.454-0.348,3.609c0.357,1.168,1.156,2.193,2.313,2.808l20.651,10.964
			C1516.726,278.75,1517.776,282.198,1516.304,284.973z"/>
		<path fill-rule="evenodd" clip-rule="evenodd" fill="#D4EAD0" d="M1609.324,353.433c-4.985,9.392-11.172,17.745-18.277,24.957
			l-17.667-9.379c-3.588-1.905-4.952-6.358-3.047-9.948c1.321-2.49,1.513-5.279,0.741-7.773c-0.759-2.498-2.48-4.703-4.97-6.023
			c-2.491-1.322-5.28-1.514-7.774-0.742c-2.499,0.758-4.702,2.479-6.024,4.97l-1.028,1.938c-2.012,3.79-6.722,5.233-10.512,3.222
			c-1.904-1.012-3.204-2.689-3.795-4.594c-0.583-1.9-0.441-4.029,0.564-5.924c0.931-1.752,1.06-3.715,0.529-5.469
			c-0.544-1.751-1.75-3.305-3.493-4.229l-47.632-25.287c-4.05-2.149-5.593-7.181-3.442-11.231c1.077-2.028,2.869-3.42,4.902-4.05
			c2.036-0.617,4.308-0.464,6.329,0.609l40.127,21.303c3.697,1.963,8.302,0.56,10.269-3.146c0.984-1.854,2.62-3.134,4.482-3.704
			c1.86-0.57,3.933-0.427,5.785,0.557l59.53,31.604C1613.338,345.268,1611.475,349.383,1609.324,353.433z"/>
		<path fill-rule="evenodd" clip-rule="evenodd" fill="#D4EAD0" d="M1468.743,333.871c-0.891,1.676-2.38,2.842-4.07,3.352
			c-1.686,0.524-3.563,0.398-5.249-0.496l-51.958-27.584c-0.46-8.122,0.003-16.346,1.438-24.492l48.185,25.58
			c2.08,1.104,2.871,3.684,1.767,5.763c-0.552,1.04-0.636,2.21-0.309,3.254c0.318,1.04,1.03,1.966,2.07,2.518l5.266,2.796
			C1469.244,326.345,1470.528,330.508,1468.743,333.871z"/>
		<path fill-rule="evenodd" clip-rule="evenodd" fill="#D4EAD0" d="M1572.422,393.49c-14.205,9.084-30.376,14.687-47.085,16.381
			l-23.887-12.682c-2.256-1.197-3.816-3.197-4.504-5.465c-0.7-2.264-0.528-4.795,0.669-7.05c2.395-4.511,0.684-10.115-3.835-12.515
			l-17.188-9.125c-2.196-1.166-3.72-3.113-4.396-5.321s-0.507-4.675,0.66-6.872c2.337-4.402,7.792-6.073,12.193-3.736
			L1572.422,393.49z"/>
	</g>
</g>
<circle opacity="0.23" fill-rule="evenodd" clip-rule="evenodd" fill="#FFFFFF" cx="1425.452" cy="362.861" r="78.217"/>
<path fill-rule="evenodd" clip-rule="evenodd" fill="#FFFFFF" d="M1388.49,413.592c24.082,12.783,54.149,3.569,66.933-20.512
	c12.784-24.08,3.57-54.147-20.511-66.932s-54.147-3.57-66.932,20.511S1364.41,400.807,1388.49,413.592z"/>
<path fill-rule="evenodd" clip-rule="evenodd" fill="#FFFFFF" d="M1347.283,403.646c13.857,7.355,31.159,2.054,38.516-11.803
	c7.356-13.858,2.055-31.16-11.802-38.516c-13.857-7.357-31.159-2.055-38.516,11.803S1333.427,396.289,1347.283,403.646z"/>
<path fill-rule="evenodd" clip-rule="evenodd" fill="#FFFFFF" d="M1280.945,406.242c6.19,3.285,13.919,0.918,17.205-5.272
	s0.918-13.919-5.272-17.205c-6.189-3.286-13.919-0.917-17.205,5.272S1274.756,402.956,1280.945,406.242z"/>
<path fill-rule="evenodd" clip-rule="evenodd" fill="#FFFFFF" d="M1430.937,670.256c2.248,0,6.292-0.688,11.885,0.064
	c5.791,0.777,6.914,3.369,6.914,3.369s-1.253-0.346-2.938,0.775c-0.75,0.504-1.387,1.424-1.537,2.076
	c-0.057,0.262-0.02,1.168,0.37,0.521c0.389-0.652,2.938-0.131,3.65-0.068c0.715,0.068,9.529,1.104,12.384-0.322l2.203-0.262
	c0,0,0.906-1.488-1.687-1.945c1.104-0.713,4.927-5.791,8.816-4.75c3.892,1.036,8.493,1.574,8.493,1.574s0.973-0.58,0.324-0.842
	c-0.649-0.258-6.482-4.321-9.595-4.709c-3.112-0.39-8.773,4.623-12.013,6.049c-1.818,0.867-3.936-0.301-3.936-0.301
	s-6.221-5.319-8.038-5.574c-1.815-0.262-14.51,3.426-14.769,2.903C1430.43,668.945,1430.493,670.113,1430.937,670.256z"/>
<path fill-rule="evenodd" clip-rule="evenodd" fill="#FFFFFF" d="M1349.349,683.338c2.244,0,6.287-0.684,11.881,0.066
	c5.795,0.777,6.918,3.371,6.918,3.371s-1.255-0.345-2.941,0.777c-0.749,0.497-1.383,1.42-1.534,2.073
	c-0.057,0.261-0.021,1.167,0.367,0.519c0.39-0.646,2.94-0.13,3.652-0.063c0.714,0.063,9.531,1.1,12.382-0.325l2.204-0.259
	c0,0,0.908-1.493-1.684-1.945c1.1-0.714,4.927-5.791,8.813-4.751c3.892,1.032,8.492,1.575,8.492,1.575s0.973-0.588,0.325-0.842
	c-0.647-0.262-6.483-4.324-9.595-4.715c-3.109-0.387-8.773,4.625-12.014,6.054c-1.814,0.861-3.932-0.302-3.932-0.302
	s-6.225-5.316-8.039-5.578c-1.814-0.259-14.51,3.425-14.768,2.908C1348.838,682.029,1348.905,683.197,1349.349,683.338z"/>
<path fill-rule="evenodd" clip-rule="evenodd" fill="#FFFFFF" d="M1578.703,817.034c2.349,0,6.574-0.72,12.426,0.067
	c6.055,0.813,7.229,3.525,7.229,3.525s-1.312-0.364-3.072,0.81c-0.783,0.524-1.449,1.484-1.605,2.169
	c-0.063,0.275-0.021,1.222,0.387,0.543c0.405-0.677,3.072-0.134,3.815-0.063c0.747,0.063,9.966,1.146,12.946-0.342l2.307-0.272
	c0,0,0.946-1.557-1.766-2.035c1.156-0.743,5.153-6.056,9.221-4.967c4.068,1.081,8.878,1.649,8.878,1.649s1.014-0.613,0.338-0.88
	c-0.675-0.276-6.774-4.521-10.028-4.926c-3.255-0.409-9.173,4.832-12.563,6.321c-1.899,0.907-4.113-0.311-4.113-0.311
	s-6.505-5.562-8.402-5.833c-1.898-0.271-15.174,3.583-15.445,3.04C1578.168,815.666,1578.236,816.888,1578.703,817.034z"/>
<path fill-rule="evenodd" clip-rule="evenodd" fill="#FFFFFF" d="M1324.269,641.3c2.395,0,6.702-0.729,12.665,0.071
	c6.17,0.828,7.366,3.594,7.366,3.594s-1.336-0.367-3.131,0.83c-0.798,0.531-1.477,1.511-1.637,2.209
	c-0.061,0.281-0.021,1.243,0.394,0.555c0.414-0.691,3.134-0.141,3.894-0.07c0.759,0.07,10.156,1.174,13.195-0.344l2.347-0.277
	c0,0,0.969-1.592-1.795-2.072c1.176-0.764,5.251-6.171,9.397-5.068c4.146,1.104,9.051,1.684,9.051,1.684s1.036-0.625,0.344-0.898
	c-0.691-0.277-6.907-4.608-10.224-5.022c-3.317-0.411-9.351,4.931-12.807,6.447c-1.933,0.922-4.19-0.321-4.19-0.321
	s-6.633-5.664-8.565-5.941c-1.936-0.277-15.467,3.651-15.74,3.096C1323.726,639.911,1323.792,641.154,1324.269,641.3z"/>
<path fill-rule="evenodd" clip-rule="evenodd" fill="#FFFFFF" d="M1024.603,396.785c1.747,0,4.891-0.534,9.239,0.045
	c4.501,0.605,5.375,2.624,5.375,2.624s-0.975-0.271-2.285,0.606c-0.582,0.386-1.075,1.1-1.19,1.609
	c-0.047,0.203-0.019,0.908,0.284,0.404s2.283-0.102,2.839-0.049c0.555,0.049,7.408,0.854,9.626-0.254l1.714-0.201
	c0,0,0.706-1.159-1.311-1.51c0.856-0.558,3.829-4.506,6.854-3.698c3.023,0.808,6.603,1.228,6.603,1.228s0.754-0.453,0.25-0.654
	c-0.502-0.203-5.038-3.363-7.458-3.666c-2.419-0.299-6.821,3.598-9.34,4.707c-1.409,0.67-3.056-0.234-3.056-0.234
	s-4.839-4.135-6.25-4.336s-11.279,2.663-11.481,2.26C1024.208,395.767,1024.258,396.674,1024.603,396.785z"/>
<path fill-rule="evenodd" clip-rule="evenodd" fill="#FFFFFF" d="M970.025,381.943c1.746,0,4.891-0.533,9.238,0.049
	c4.502,0.605,5.376,2.62,5.376,2.62s-0.974-0.267-2.284,0.604c-0.583,0.391-1.076,1.104-1.193,1.615
	c-0.045,0.201-0.016,0.904,0.285,0.403c0.303-0.508,2.285-0.104,2.84-0.052c0.555,0.052,7.407,0.855,9.626-0.254l1.714-0.202
	c0,0,0.704-1.159-1.313-1.511c0.858-0.553,3.831-4.501,6.854-3.697c3.022,0.808,6.602,1.23,6.602,1.23s0.757-0.455,0.252-0.657
	c-0.504-0.202-5.04-3.359-7.458-3.662c-2.419-0.303-6.82,3.597-9.34,4.703c-1.411,0.671-3.058-0.233-3.058-0.233
	s-4.839-4.134-6.248-4.336c-1.413-0.201-11.28,2.662-11.483,2.26C969.631,380.928,969.681,381.832,970.025,381.943z"/>
<path fill-rule="evenodd" clip-rule="evenodd" fill="#FFFFFF" d="M918.045,407.389c1.745,0,4.89-0.533,9.238,0.053
	c4.502,0.605,5.376,2.619,5.376,2.619s-0.976-0.27-2.285,0.605c-0.583,0.389-1.076,1.104-1.193,1.612
	c-0.045,0.202-0.017,0.908,0.284,0.403c0.304-0.504,2.285-0.101,2.841-0.049c0.556,0.049,7.407,0.856,9.624-0.25l1.715-0.205
	c0,0,0.705-1.156-1.311-1.512c0.857-0.556,3.83-4.5,6.852-3.693c3.026,0.805,6.604,1.225,6.604,1.225s0.756-0.457,0.252-0.655
	c-0.504-0.202-5.039-3.361-7.459-3.661c-2.418-0.303-6.818,3.594-9.339,4.703c-1.411,0.674-3.057-0.238-3.057-0.238
	s-4.838-4.13-6.249-4.332c-1.411-0.201-11.279,2.663-11.482,2.262C917.648,406.374,917.699,407.281,918.045,407.389z"/>
</svg>
