<svg xmlns="http://www.w3.org/2000/svg" xmlns:xlink="http://www.w3.org/1999/xlink" width="100%" height="100%" version="1.1" viewBox="0 0 766 1361" xml:space="preserve" style="fill-rule:evenodd;clip-rule:evenodd;stroke-linejoin:round;stroke-miterlimit:2"><g transform="matrix(1,0,0,1,-1059.6,-302)"><path d="M1794.5,1662.9L1090.3,1662.9C1073.4,1662.9 1059.7,1649.2 1059.7,1632.3L1059.7,332.6C1059.7,315.7 1073.4,302 1090.3,302L1794.5,302C1811.4,302 1825.1,315.7 1825.1,332.6L1825.1,1632.2C1825.2,1649.2 1811.5,1662.9 1794.5,1662.9Z" style="fill:url(#_Linear1);fill-rule:nonzero"/><g><path d="M1334.1,777.3C1334.1,777.3 1366.2,739.1 1383,739.1C1399.8,739.1 1449.8,837.7 1470,831.4C1490.2,825.1 1496.9,794.5 1523.5,826.5C1550,858.4 1656.7,981.5 1656.7,981.5L1518.4,1015.9L1334.1,777.3Z" style="fill:url(#_Linear2);fill-rule:nonzero"/><path d="M1084.9,640.2C1084.9,640.2 1138.3,586.3 1164,586.3C1188.3,586.3 1262.2,726.2 1262.2,726.2L1147.5,801.3L1084.9,640.2Z" style="fill:url(#_Linear3);fill-rule:nonzero"/><path d="M1825.2,1041.5C1825.2,1041.5 1752.3,898.7 1718.1,898.7C1709.4,898.7 1602.1,995.9 1534.7,944.3C1480.3,902.7 1354.1,750.8 1307.3,693.6C1297.6,681.8 1280,679.7 1267.7,689C1243.7,707.1 1207.2,731.5 1197.9,719.8C1183.6,701.9 1059.6,527.7 1059.6,527.7L1059.6,1041.5L1825.2,1041.5Z" style="fill:url(#_Linear4);fill-rule:nonzero"/><path d="M1059.7,746.8C1059.7,746.8 1088.8,698.9 1113.6,712.1C1127,719.2 1207.4,829.3 1221.7,833.4C1236,837.5 1261.5,791.6 1309.4,854.8C1357.3,918 1484.8,1041.4 1484.8,1041.4L1059.8,1041.4L1059.8,746.8L1059.7,746.8Z" style="fill:url(#_Linear5);fill-rule:nonzero"/></g><path d="M1691.9,714.3C1642.1,714.3 1601.8,674 1601.8,624.2C1601.8,607.7 1606.2,592.2 1614,579C1581.3,592.5 1558.2,624.7 1558.2,662.3C1558.2,712.1 1598.5,752.4 1648.3,752.4C1681.6,752.4 1710.6,734.4 1726.2,707.6C1715.7,711.9 1704.1,714.3 1691.9,714.3Z" style="fill:#e0f9fc;fill-rule:nonzero"/><rect width="765.5" height="590.8" x="1059.7" y="1041.5" style="fill:url(#_Linear6)"/><g><path d="M1113.5,339C1110.1,339 1107.4,341.7 1107.4,345.1C1107.4,348.5 1110.1,351.2 1113.5,351.2C1116.9,351.2 1119.6,348.5 1119.6,345.1C1119.6,341.8 1116.9,339 1113.5,339Z" style="fill:url(#_Linear7);fill-rule:nonzero"/><path d="M1468.3,592.9C1464.9,592.9 1462.2,595.6 1462.2,599C1462.2,602.4 1464.9,605.1 1468.3,605.1C1471.7,605.1 1474.4,602.4 1474.4,599C1474.4,595.7 1471.6,592.9 1468.3,592.9" style="fill:url(#_Linear8);fill-rule:nonzero"/><path d="M1228,382.9C1224.6,382.9 1221.9,385.6 1221.9,389C1221.9,392.4 1224.6,395.1 1228,395.1C1231.4,395.1 1234.1,392.4 1234.1,389C1234.1,385.6 1231.4,382.9 1228,382.9" style="fill:url(#_Linear9);fill-rule:nonzero"/><path d="M1539.6,345.2C1536.2,345.2 1533.5,347.9 1533.5,351.3C1533.5,354.7 1536.2,357.4 1539.6,357.4C1543,357.4 1545.7,354.7 1545.7,351.3C1545.7,347.9 1543,345.2 1539.6,345.2" style="fill:url(#_Linear10);fill-rule:nonzero"/><path d="M1715,438.1C1711.6,438.1 1708.9,440.8 1708.9,444.2C1708.9,447.6 1711.6,450.3 1715,450.3C1718.4,450.3 1721.1,447.6 1721.1,444.2C1721.1,440.8 1718.4,438.1 1715,438.1" style="fill:url(#_Linear11);fill-rule:nonzero"/><path d="M1750.5,368.9C1748.3,368.9 1746.6,370.7 1746.6,372.8C1746.6,375 1748.4,376.7 1750.5,376.7C1752.7,376.7 1754.4,374.9 1754.4,372.8C1754.4,370.7 1752.6,368.9 1750.5,368.9" style="fill:url(#_Linear12);fill-rule:nonzero"/><path d="M1140.5,440.3C1138.3,440.3 1136.6,442.1 1136.6,444.2C1136.6,446.4 1138.4,448.1 1140.5,448.1C1142.7,448.1 1144.4,446.3 1144.4,444.2C1144.4,442 1142.7,440.3 1140.5,440.3" style="fill:url(#_Linear13);fill-rule:nonzero"/><path d="M1262.2,566.3C1260,566.3 1258.3,568.1 1258.3,570.2C1258.3,572.4 1260.1,574.1 1262.2,574.1C1264.4,574.1 1266.1,572.3 1266.1,570.2C1266.1,568.1 1264.4,566.3 1262.2,566.3" style="fill:url(#_Linear14);fill-rule:nonzero"/><path d="M1351.2,650.1C1349,650.1 1347.3,651.9 1347.3,654C1347.3,656.2 1349.1,657.9 1351.2,657.9C1353.4,657.9 1355.1,656.1 1355.1,654C1355.1,651.9 1353.3,650.1 1351.2,650.1" style="fill:url(#_Linear15);fill-rule:nonzero"/><path d="M1330.2,337.3C1328,337.3 1326.3,339.1 1326.3,341.2C1326.3,343.4 1328.1,345.1 1330.2,345.1C1332.4,345.1 1334.1,343.3 1334.1,341.2C1334.1,339.1 1332.3,337.3 1330.2,337.3" style="fill:url(#_Linear16);fill-rule:nonzero"/><path d="M1600.8,335.1C1598.6,335.1 1596.9,336.9 1596.9,339C1596.9,341.2 1598.7,342.9 1600.8,342.9C1603,342.9 1604.7,341.1 1604.7,339C1604.7,336.9 1603,335.1 1600.8,335.1" style="fill:url(#_Linear17);fill-rule:nonzero"/><path d="M1708.9,610.4C1706.7,610.4 1705,612.2 1705,614.3C1705,616.5 1706.8,618.2 1708.9,618.2C1711.1,618.2 1712.8,616.4 1712.8,614.3C1712.8,612.1 1711,610.4 1708.9,610.4" style="fill:url(#_Linear18);fill-rule:nonzero"/><path d="M1334.1,534.3C1331.9,534.3 1330.2,536.1 1330.2,538.2C1330.2,540.4 1332,542.1 1334.1,542.1C1336.3,542.1 1338,540.3 1338,538.2C1338,536 1336.2,534.3 1334.1,534.3" style="fill:url(#_Linear19);fill-rule:nonzero"/><path d="M1708.9,570.2C1705.5,570.2 1702.8,572.9 1702.8,576.3C1702.8,579.7 1705.5,582.4 1708.9,582.4C1712.3,582.4 1715,579.7 1715,576.3C1715,573 1712.2,570.2 1708.9,570.2" style="fill:url(#_Linear20);fill-rule:nonzero"/></g><g><path d="M1312.5,1077.3C1231.3,1077.3 1158.9,1079.4 1112.1,1082.7C1158.9,1086 1231.3,1088.1 1312.5,1088.1C1393.7,1088.1 1466.1,1086 1512.9,1082.7C1466.1,1079.5 1393.8,1077.3 1312.5,1077.3" style="fill:url(#_Linear21);fill-rule:nonzero"/><path d="M1302.7,1119.7C1272.3,1119.7 1245.2,1121.8 1227.6,1125.1C1245.1,1128.4 1272.2,1130.5 1302.7,1130.5C1333.1,1130.5 1360.2,1128.4 1377.8,1125.1C1360.2,1121.9 1333.1,1119.7 1302.7,1119.7" style="fill:url(#_Linear22);fill-rule:nonzero"/><path d="M1691.6,1058.2C1649.8,1058.2 1612.5,1060.3 1588.4,1063.6C1612.5,1066.9 1649.8,1069 1691.6,1069C1733.4,1069 1770.7,1066.9 1794.8,1063.6C1770.7,1060.3 1733.5,1058.2 1691.6,1058.2" style="fill:url(#_Linear23);fill-rule:nonzero"/><path d="M1785.6,1080C1774.6,1080 1764.7,1081.1 1758.4,1082.7C1764.8,1084.3 1774.6,1085.4 1785.6,1085.4C1796.6,1085.4 1806.5,1084.3 1812.8,1082.7C1806.5,1081.1 1796.6,1080 1785.6,1080" style="fill:url(#_Linear24);fill-rule:nonzero"/><path d="M1438.6,1104.2C1424.8,1104.2 1412.6,1105.3 1404.6,1106.9C1412.5,1108.5 1424.8,1109.6 1438.6,1109.6C1452.4,1109.6 1464.6,1108.5 1472.6,1106.9C1464.6,1105.3 1452.4,1104.2 1438.6,1104.2" style="fill:url(#_Linear25);fill-rule:nonzero"/><path d="M1396.8,1162.2C1366.7,1162.2 1340,1163.3 1322.7,1164.9C1340,1166.5 1366.8,1167.6 1396.8,1167.6C1426.9,1167.6 1453.6,1166.5 1470.9,1164.9C1453.6,1163.2 1426.9,1162.2 1396.8,1162.2" style="fill:url(#_Linear26);fill-rule:nonzero"/><path d="M1206.9,1148.7C1176.8,1148.7 1150.1,1149.8 1132.8,1151.4C1150.1,1153 1176.9,1154.1 1206.9,1154.1C1237,1154.1 1263.7,1153 1281,1151.4C1263.7,1149.7 1237,1148.7 1206.9,1148.7" style="fill:url(#_Linear27);fill-rule:nonzero"/><path d="M1472.6,1139.5C1442.5,1139.5 1415.8,1140.6 1398.5,1142.2C1415.8,1143.8 1442.6,1144.9 1472.6,1144.9C1502.7,1144.9 1529.4,1143.8 1546.7,1142.2C1529.4,1140.6 1502.6,1139.5 1472.6,1139.5" style="fill:url(#_Linear28);fill-rule:nonzero"/></g><path d="M1059.7,1153.1C1059.7,1153.1 1251.2,1152.1 1534.8,1359.6C1813.5,1563.5 1737,1662.9 1737,1662.9L1059.7,1632.3L1059.7,1153.1Z" style="fill:url(#_Linear29);fill-rule:nonzero"/><path d="M1093.7,1155.8L1081.2,1175.7L1093.5,1175.7C1092.1,1178.5 1090.5,1181.5 1088.7,1184.7L1184.6,1184.7C1182.8,1181.5 1181.2,1178.5 1179.8,1175.7L1192.1,1175.7L1179.6,1155.8L1195.5,1156.5C1190.5,1150.6 1183.7,1141.5 1183.7,1141.5L1191.3,1141.5C1181.3,1134.5 1169.7,1109.9 1162.4,1092.5L1171.2,1095.6L1160,1074.2L1173.7,1074.2C1156.5,1060.8 1136.7,1001 1136.7,1001C1136.7,1001 1117,1060.8 1099.7,1074.2L1113.4,1074.2L1102.2,1095.6L1111,1092.5C1103.7,1109.9 1092.1,1134.5 1082.1,1141.5L1089.7,1141.5C1089.7,1141.5 1083,1150.6 1077.9,1156.5L1093.7,1155.8Z" style="fill:url(#_Linear30);fill-rule:nonzero"/><g><path d="M1059.7,1632.3C1059.7,1649.2 1073.4,1662.9 1090.3,1662.9L1794.5,1662.9C1811.4,1662.9 1825.1,1649.2 1825.1,1632.3L1825.1,1130C1469.3,1161.1 1059.6,1351.9 1059.6,1351.9L1059.6,1632.3L1059.7,1632.3Z" style="fill:url(#_Linear31);fill-rule:nonzero"/><path d="M1059.7,1632.3C1059.7,1649.2 1073.4,1662.9 1090.3,1662.9L1794.5,1662.9C1811.4,1662.9 1825.1,1649.2 1825.1,1632.3L1825.1,1130C1469.3,1161.1 1059.6,1351.9 1059.6,1351.9L1059.6,1632.3L1059.7,1632.3Z" style="fill:url(#_Linear32);fill-rule:nonzero"/></g><path d="M1627.5,1136.1L1606.4,1169.6L1627.1,1169.6C1624.7,1174.3 1622,1179.4 1619,1184.8L1780.3,1184.8C1777.3,1179.4 1774.6,1174.4 1772.2,1169.6L1792.9,1169.6L1771.8,1136.1L1798.5,1137.3C1790,1127.4 1778.7,1112.1 1778.7,1112.1L1791.4,1112.1C1774.6,1100.3 1755,1058.9 1742.7,1029.6L1757.4,1034.8L1738.6,998.9L1761.7,998.9C1732.7,976.4 1699.5,875.8 1699.5,875.8C1699.5,875.8 1666.3,976.4 1637.3,998.9L1660.4,998.9L1641.6,1034.8L1656.3,1029.6C1644,1058.9 1624.4,1100.2 1607.6,1112.1L1620.3,1112.1C1620.3,1112.1 1609,1127.4 1600.5,1137.3L1627.5,1136.1Z" style="fill:url(#_Linear33);fill-rule:nonzero"/><path d="M1475.5,1185.6L1458.5,1212.5L1475.1,1212.5C1473.2,1216.3 1471,1220.4 1468.6,1224.7L1598.3,1224.7C1595.9,1220.4 1593.7,1216.3 1591.8,1212.5L1608.4,1212.5L1591.4,1185.6L1612.9,1186.5C1606.1,1178.6 1597,1166.3 1597,1166.3L1607.2,1166.3C1593.7,1156.8 1578,1123.6 1568.1,1100L1579.9,1104.2L1564.8,1075.3L1583.4,1075.3C1560.1,1057.2 1533.4,976.4 1533.4,976.4C1533.4,976.4 1506.7,1057.3 1483.4,1075.3L1502,1075.3L1486.9,1104.2L1498.7,1100C1488.8,1123.6 1473.1,1156.8 1459.6,1166.3L1469.8,1166.3C1469.8,1166.3 1460.7,1178.6 1453.9,1186.5L1475.5,1185.6Z" style="fill:url(#_Linear34);fill-rule:nonzero"/></g><defs><linearGradient id="_Linear1" x1="0" x2="1" y1="0" y2="0" gradientTransform="matrix(3.6794e-14,-600.891,600.891,3.6794e-14,1442.43,933.521)" gradientUnits="userSpaceOnUse"><stop offset="0" style="stop-color:#a4e5f4;stop-opacity:1"/><stop offset="0" style="stop-color:#a4e5f4;stop-opacity:1"/><stop offset=".4" style="stop-color:#60acc4;stop-opacity:1"/><stop offset="1" style="stop-color:#352968;stop-opacity:1"/></linearGradient><linearGradient id="_Linear2" x1="0" x2="1" y1="0" y2="0" gradientTransform="matrix(35.4681,-128.458,128.458,35.4681,1479.12,938.203)" gradientUnits="userSpaceOnUse"><stop offset="0" style="stop-color:#5599b7;stop-opacity:1"/><stop offset="0" style="stop-color:#5599b7;stop-opacity:1"/><stop offset="1" style="stop-color:#407da0;stop-opacity:1"/></linearGradient><linearGradient id="_Linear3" x1="0" x2="1" y1="0" y2="0" gradientTransform="matrix(31.4417,-107.058,107.058,31.4417,1165.54,710.632)" gradientUnits="userSpaceOnUse"><stop offset="0" style="stop-color:#5599b7;stop-opacity:1"/><stop offset="0" style="stop-color:#5599b7;stop-opacity:1"/><stop offset="1" style="stop-color:#407da0;stop-opacity:1"/></linearGradient><linearGradient id="_Linear4" x1="0" x2="1" y1="0" y2="0" gradientTransform="matrix(59.9715,-110.458,110.458,59.9715,1360.17,936.061)" gradientUnits="userSpaceOnUse"><stop offset="0" style="stop-color:#496e9b;stop-opacity:1"/><stop offset=".01" style="stop-color:#496e9b;stop-opacity:1"/><stop offset="1" style="stop-color:#3c578e;stop-opacity:1"/></linearGradient><linearGradient id="_Linear5" x1="0" x2="1" y1="0" y2="0" gradientTransform="matrix(9.98355e-15,163.044,-163.044,9.98355e-15,1272.16,841.358)" gradientUnits="userSpaceOnUse"><stop offset="0" style="stop-color:#373c77;stop-opacity:1"/><stop offset=".01" style="stop-color:#373c77;stop-opacity:1"/><stop offset="1" style="stop-color:#455589;stop-opacity:1"/></linearGradient><linearGradient id="_Linear6" x1="0" x2="1" y1="0" y2="0" gradientTransform="matrix(9.14928e-15,149.419,-149.419,9.14928e-15,1442.43,1047.28)" gradientUnits="userSpaceOnUse"><stop offset="0" style="stop-color:#6eb2cc;stop-opacity:1"/><stop offset=".01" style="stop-color:#6eb2cc;stop-opacity:1"/><stop offset="1" style="stop-color:#718fcc;stop-opacity:1"/></linearGradient><linearGradient id="_Linear7" x1="0" x2="1" y1="0" y2="0" gradientTransform="matrix(600.887,0,0,600.887,525.117,345.155)" gradientUnits="userSpaceOnUse"><stop offset="0" style="stop-color:#ccf4fa;stop-opacity:1"/><stop offset="0" style="stop-color:#ccf4fa;stop-opacity:1"/><stop offset=".1" style="stop-color:#c2f0f7;stop-opacity:1"/><stop offset=".25" style="stop-color:#a8e6ef;stop-opacity:1"/><stop offset=".4" style="stop-color:#8adae6;stop-opacity:1"/><stop offset=".47" style="stop-color:#87d3e3;stop-opacity:1"/><stop offset=".58" style="stop-color:#7fbeda;stop-opacity:1"/><stop offset=".72" style="stop-color:#719ccb;stop-opacity:1"/><stop offset=".87" style="stop-color:#5e6eb7;stop-opacity:1"/><stop offset="1" style="stop-color:#4c40a3;stop-opacity:1"/></linearGradient><linearGradient id="_Linear8" x1="0" x2="1" y1="0" y2="0" gradientTransform="matrix(6.23472e-11,-600.901,600.901,6.23472e-11,1468.24,933.541)" gradientUnits="userSpaceOnUse"><stop offset="0" style="stop-color:#ccf4fa;stop-opacity:1"/><stop offset="0" style="stop-color:#ccf4fa;stop-opacity:1"/><stop offset=".1" style="stop-color:#c2f0f7;stop-opacity:1"/><stop offset=".25" style="stop-color:#a8e6ef;stop-opacity:1"/><stop offset=".4" style="stop-color:#8adae6;stop-opacity:1"/><stop offset=".47" style="stop-color:#87d3e3;stop-opacity:1"/><stop offset=".58" style="stop-color:#7fbeda;stop-opacity:1"/><stop offset=".72" style="stop-color:#719ccb;stop-opacity:1"/><stop offset=".87" style="stop-color:#5e6eb7;stop-opacity:1"/><stop offset="1" style="stop-color:#4c40a3;stop-opacity:1"/></linearGradient><linearGradient id="_Linear9" x1="0" x2="1" y1="0" y2="0" gradientTransform="matrix(6.20803e-11,-600.901,600.901,6.20803e-11,1228,933.541)" gradientUnits="userSpaceOnUse"><stop offset="0" style="stop-color:#ccf4fa;stop-opacity:1"/><stop offset="0" style="stop-color:#ccf4fa;stop-opacity:1"/><stop offset=".1" style="stop-color:#c2f0f7;stop-opacity:1"/><stop offset=".25" style="stop-color:#a8e6ef;stop-opacity:1"/><stop offset=".4" style="stop-color:#8adae6;stop-opacity:1"/><stop offset=".47" style="stop-color:#87d3e3;stop-opacity:1"/><stop offset=".58" style="stop-color:#7fbeda;stop-opacity:1"/><stop offset=".72" style="stop-color:#719ccb;stop-opacity:1"/><stop offset=".87" style="stop-color:#5e6eb7;stop-opacity:1"/><stop offset="1" style="stop-color:#4c40a3;stop-opacity:1"/></linearGradient><linearGradient id="_Linear10" x1="0" x2="1" y1="0" y2="0" gradientTransform="matrix(6.23472e-11,-600.901,600.901,6.23472e-11,1539.62,933.541)" gradientUnits="userSpaceOnUse"><stop offset="0" style="stop-color:#ccf4fa;stop-opacity:1"/><stop offset="0" style="stop-color:#ccf4fa;stop-opacity:1"/><stop offset=".1" style="stop-color:#c2f0f7;stop-opacity:1"/><stop offset=".25" style="stop-color:#a8e6ef;stop-opacity:1"/><stop offset=".4" style="stop-color:#8adae6;stop-opacity:1"/><stop offset=".47" style="stop-color:#87d3e3;stop-opacity:1"/><stop offset=".58" style="stop-color:#7fbeda;stop-opacity:1"/><stop offset=".72" style="stop-color:#719ccb;stop-opacity:1"/><stop offset=".87" style="stop-color:#5e6eb7;stop-opacity:1"/><stop offset="1" style="stop-color:#4c40a3;stop-opacity:1"/></linearGradient><linearGradient id="_Linear11" x1="0" x2="1" y1="0" y2="0" gradientTransform="matrix(6.23472e-11,-600.901,600.901,6.23472e-11,1714.97,933.541)" gradientUnits="userSpaceOnUse"><stop offset="0" style="stop-color:#ccf4fa;stop-opacity:1"/><stop offset="0" style="stop-color:#ccf4fa;stop-opacity:1"/><stop offset=".1" style="stop-color:#c2f0f7;stop-opacity:1"/><stop offset=".25" style="stop-color:#a8e6ef;stop-opacity:1"/><stop offset=".4" style="stop-color:#8adae6;stop-opacity:1"/><stop offset=".47" style="stop-color:#87d3e3;stop-opacity:1"/><stop offset=".58" style="stop-color:#7fbeda;stop-opacity:1"/><stop offset=".72" style="stop-color:#719ccb;stop-opacity:1"/><stop offset=".87" style="stop-color:#5e6eb7;stop-opacity:1"/><stop offset="1" style="stop-color:#4c40a3;stop-opacity:1"/></linearGradient><linearGradient id="_Linear12" x1="0" x2="1" y1="0" y2="0" gradientTransform="matrix(6.23472e-11,-600.901,600.901,6.23472e-11,1750.45,933.541)" gradientUnits="userSpaceOnUse"><stop offset="0" style="stop-color:#ccf4fa;stop-opacity:1"/><stop offset="0" style="stop-color:#ccf4fa;stop-opacity:1"/><stop offset=".1" style="stop-color:#c2f0f7;stop-opacity:1"/><stop offset=".25" style="stop-color:#a8e6ef;stop-opacity:1"/><stop offset=".4" style="stop-color:#8adae6;stop-opacity:1"/><stop offset=".47" style="stop-color:#87d3e3;stop-opacity:1"/><stop offset=".58" style="stop-color:#7fbeda;stop-opacity:1"/><stop offset=".72" style="stop-color:#719ccb;stop-opacity:1"/><stop offset=".87" style="stop-color:#5e6eb7;stop-opacity:1"/><stop offset="1" style="stop-color:#4c40a3;stop-opacity:1"/></linearGradient><linearGradient id="_Linear13" x1="0" x2="1" y1="0" y2="0" gradientTransform="matrix(6.20803e-11,-600.901,600.901,6.20803e-11,1140.53,933.541)" gradientUnits="userSpaceOnUse"><stop offset="0" style="stop-color:#ccf4fa;stop-opacity:1"/><stop offset="0" style="stop-color:#ccf4fa;stop-opacity:1"/><stop offset=".1" style="stop-color:#c2f0f7;stop-opacity:1"/><stop offset=".25" style="stop-color:#a8e6ef;stop-opacity:1"/><stop offset=".4" style="stop-color:#8adae6;stop-opacity:1"/><stop offset=".47" style="stop-color:#87d3e3;stop-opacity:1"/><stop offset=".58" style="stop-color:#7fbeda;stop-opacity:1"/><stop offset=".72" style="stop-color:#719ccb;stop-opacity:1"/><stop offset=".87" style="stop-color:#5e6eb7;stop-opacity:1"/><stop offset="1" style="stop-color:#4c40a3;stop-opacity:1"/></linearGradient><linearGradient id="_Linear14" x1="0" x2="1" y1="0" y2="0" gradientTransform="matrix(6.23472e-11,-600.901,600.901,6.23472e-11,1262.25,933.541)" gradientUnits="userSpaceOnUse"><stop offset="0" style="stop-color:#ccf4fa;stop-opacity:1"/><stop offset="0" style="stop-color:#ccf4fa;stop-opacity:1"/><stop offset=".1" style="stop-color:#c2f0f7;stop-opacity:1"/><stop offset=".25" style="stop-color:#a8e6ef;stop-opacity:1"/><stop offset=".4" style="stop-color:#8adae6;stop-opacity:1"/><stop offset=".47" style="stop-color:#87d3e3;stop-opacity:1"/><stop offset=".58" style="stop-color:#7fbeda;stop-opacity:1"/><stop offset=".72" style="stop-color:#719ccb;stop-opacity:1"/><stop offset=".87" style="stop-color:#5e6eb7;stop-opacity:1"/><stop offset="1" style="stop-color:#4c40a3;stop-opacity:1"/></linearGradient><linearGradient id="_Linear15" x1="0" x2="1" y1="0" y2="0" gradientTransform="matrix(6.23472e-11,-600.901,600.901,6.23472e-11,1351.19,933.541)" gradientUnits="userSpaceOnUse"><stop offset="0" style="stop-color:#ccf4fa;stop-opacity:1"/><stop offset="0" style="stop-color:#ccf4fa;stop-opacity:1"/><stop offset=".1" style="stop-color:#c2f0f7;stop-opacity:1"/><stop offset=".25" style="stop-color:#a8e6ef;stop-opacity:1"/><stop offset=".4" style="stop-color:#8adae6;stop-opacity:1"/><stop offset=".47" style="stop-color:#87d3e3;stop-opacity:1"/><stop offset=".58" style="stop-color:#7fbeda;stop-opacity:1"/><stop offset=".72" style="stop-color:#719ccb;stop-opacity:1"/><stop offset=".87" style="stop-color:#5e6eb7;stop-opacity:1"/><stop offset="1" style="stop-color:#4c40a3;stop-opacity:1"/></linearGradient><linearGradient id="_Linear16" x1="0" x2="1" y1="0" y2="0" gradientTransform="matrix(6.23472e-11,-600.901,600.901,6.23472e-11,1330.2,933.541)" gradientUnits="userSpaceOnUse"><stop offset="0" style="stop-color:#ccf4fa;stop-opacity:1"/><stop offset="0" style="stop-color:#ccf4fa;stop-opacity:1"/><stop offset=".1" style="stop-color:#c2f0f7;stop-opacity:1"/><stop offset=".25" style="stop-color:#a8e6ef;stop-opacity:1"/><stop offset=".4" style="stop-color:#8adae6;stop-opacity:1"/><stop offset=".47" style="stop-color:#87d3e3;stop-opacity:1"/><stop offset=".58" style="stop-color:#7fbeda;stop-opacity:1"/><stop offset=".72" style="stop-color:#719ccb;stop-opacity:1"/><stop offset=".87" style="stop-color:#5e6eb7;stop-opacity:1"/><stop offset="1" style="stop-color:#4c40a3;stop-opacity:1"/></linearGradient><linearGradient id="_Linear17" x1="0" x2="1" y1="0" y2="0" gradientTransform="matrix(6.23472e-11,-600.901,600.901,6.23472e-11,1600.8,933.541)" gradientUnits="userSpaceOnUse"><stop offset="0" style="stop-color:#ccf4fa;stop-opacity:1"/><stop offset="0" style="stop-color:#ccf4fa;stop-opacity:1"/><stop offset=".1" style="stop-color:#c2f0f7;stop-opacity:1"/><stop offset=".25" style="stop-color:#a8e6ef;stop-opacity:1"/><stop offset=".4" style="stop-color:#8adae6;stop-opacity:1"/><stop offset=".47" style="stop-color:#87d3e3;stop-opacity:1"/><stop offset=".58" style="stop-color:#7fbeda;stop-opacity:1"/><stop offset=".72" style="stop-color:#719ccb;stop-opacity:1"/><stop offset=".87" style="stop-color:#5e6eb7;stop-opacity:1"/><stop offset="1" style="stop-color:#4c40a3;stop-opacity:1"/></linearGradient><linearGradient id="_Linear18" x1="0" x2="1" y1="0" y2="0" gradientTransform="matrix(6.23472e-11,-600.901,600.901,6.23472e-11,1708.84,933.541)" gradientUnits="userSpaceOnUse"><stop offset="0" style="stop-color:#ccf4fa;stop-opacity:1"/><stop offset="0" style="stop-color:#ccf4fa;stop-opacity:1"/><stop offset=".1" style="stop-color:#c2f0f7;stop-opacity:1"/><stop offset=".25" style="stop-color:#a8e6ef;stop-opacity:1"/><stop offset=".4" style="stop-color:#8adae6;stop-opacity:1"/><stop offset=".47" style="stop-color:#87d3e3;stop-opacity:1"/><stop offset=".58" style="stop-color:#7fbeda;stop-opacity:1"/><stop offset=".72" style="stop-color:#719ccb;stop-opacity:1"/><stop offset=".87" style="stop-color:#5e6eb7;stop-opacity:1"/><stop offset="1" style="stop-color:#4c40a3;stop-opacity:1"/></linearGradient><linearGradient id="_Linear19" x1="0" x2="1" y1="0" y2="0" gradientTransform="matrix(6.23472e-11,-600.901,600.901,6.23472e-11,1334.09,933.541)" gradientUnits="userSpaceOnUse"><stop offset="0" style="stop-color:#ccf4fa;stop-opacity:1"/><stop offset="0" style="stop-color:#ccf4fa;stop-opacity:1"/><stop offset=".1" style="stop-color:#c2f0f7;stop-opacity:1"/><stop offset=".25" style="stop-color:#a8e6ef;stop-opacity:1"/><stop offset=".4" style="stop-color:#8adae6;stop-opacity:1"/><stop offset=".47" style="stop-color:#87d3e3;stop-opacity:1"/><stop offset=".58" style="stop-color:#7fbeda;stop-opacity:1"/><stop offset=".72" style="stop-color:#719ccb;stop-opacity:1"/><stop offset=".87" style="stop-color:#5e6eb7;stop-opacity:1"/><stop offset="1" style="stop-color:#4c40a3;stop-opacity:1"/></linearGradient><linearGradient id="_Linear20" x1="0" x2="1" y1="0" y2="0" gradientTransform="matrix(6.23472e-11,-600.901,600.901,6.23472e-11,1708.84,933.541)" gradientUnits="userSpaceOnUse"><stop offset="0" style="stop-color:#ccf4fa;stop-opacity:1"/><stop offset="0" style="stop-color:#ccf4fa;stop-opacity:1"/><stop offset=".1" style="stop-color:#c2f0f7;stop-opacity:1"/><stop offset=".25" style="stop-color:#a8e6ef;stop-opacity:1"/><stop offset=".4" style="stop-color:#8adae6;stop-opacity:1"/><stop offset=".47" style="stop-color:#87d3e3;stop-opacity:1"/><stop offset=".58" style="stop-color:#7fbeda;stop-opacity:1"/><stop offset=".72" style="stop-color:#719ccb;stop-opacity:1"/><stop offset=".87" style="stop-color:#5e6eb7;stop-opacity:1"/><stop offset="1" style="stop-color:#4c40a3;stop-opacity:1"/></linearGradient><linearGradient id="_Linear21" x1="0" x2="1" y1="0" y2="0" gradientTransform="matrix(1.63774e-11,157.172,-157.172,1.63774e-11,1312.53,1047.58)" gradientUnits="userSpaceOnUse"><stop offset="0" style="stop-color:#9ac8d7;stop-opacity:1"/><stop offset=".01" style="stop-color:#9ac8d7;stop-opacity:1"/><stop offset="1" style="stop-color:#9cb0d7;stop-opacity:1"/></linearGradient><linearGradient id="_Linear22" x1="0" x2="1" y1="0" y2="0" gradientTransform="matrix(1.63774e-11,157.172,-157.172,1.63774e-11,1302.71,1047.58)" gradientUnits="userSpaceOnUse"><stop offset="0" style="stop-color:#9ac8d7;stop-opacity:1"/><stop offset=".01" style="stop-color:#9ac8d7;stop-opacity:1"/><stop offset="1" style="stop-color:#9cb0d7;stop-opacity:1"/></linearGradient><linearGradient id="_Linear23" x1="0" x2="1" y1="0" y2="0" gradientTransform="matrix(1.63774e-11,157.172,-157.172,1.63774e-11,1691.61,1047.58)" gradientUnits="userSpaceOnUse"><stop offset="0" style="stop-color:#9ac8d7;stop-opacity:1"/><stop offset=".01" style="stop-color:#9ac8d7;stop-opacity:1"/><stop offset="1" style="stop-color:#9cb0d7;stop-opacity:1"/></linearGradient><linearGradient id="_Linear24" x1="0" x2="1" y1="0" y2="0" gradientTransform="matrix(1.63774e-11,157.172,-157.172,1.63774e-11,1785.62,1047.58)" gradientUnits="userSpaceOnUse"><stop offset="0" style="stop-color:#9ac8d7;stop-opacity:1"/><stop offset=".01" style="stop-color:#9ac8d7;stop-opacity:1"/><stop offset="1" style="stop-color:#9cb0d7;stop-opacity:1"/></linearGradient><linearGradient id="_Linear25" x1="0" x2="1" y1="0" y2="0" gradientTransform="matrix(1.63774e-11,157.172,-157.172,1.63774e-11,1438.59,1047.58)" gradientUnits="userSpaceOnUse"><stop offset="0" style="stop-color:#9ac8d7;stop-opacity:1"/><stop offset=".01" style="stop-color:#9ac8d7;stop-opacity:1"/><stop offset="1" style="stop-color:#9cb0d7;stop-opacity:1"/></linearGradient><linearGradient id="_Linear26" x1="0" x2="1" y1="0" y2="0" gradientTransform="matrix(1.63774e-11,157.172,-157.172,1.63774e-11,1396.83,1047.58)" gradientUnits="userSpaceOnUse"><stop offset="0" style="stop-color:#9ac8d7;stop-opacity:1"/><stop offset=".01" style="stop-color:#9ac8d7;stop-opacity:1"/><stop offset="1" style="stop-color:#9cb0d7;stop-opacity:1"/></linearGradient><linearGradient id="_Linear27" x1="0" x2="1" y1="0" y2="0" gradientTransform="matrix(1.63774e-11,157.172,-157.172,1.63774e-11,1206.91,1047.58)" gradientUnits="userSpaceOnUse"><stop offset="0" style="stop-color:#9ac8d7;stop-opacity:1"/><stop offset=".01" style="stop-color:#9ac8d7;stop-opacity:1"/><stop offset="1" style="stop-color:#9cb0d7;stop-opacity:1"/></linearGradient><linearGradient id="_Linear28" x1="0" x2="1" y1="0" y2="0" gradientTransform="matrix(1.63774e-11,157.172,-157.172,1.63774e-11,1472.57,1047.58)" gradientUnits="userSpaceOnUse"><stop offset="0" style="stop-color:#9ac8d7;stop-opacity:1"/><stop offset=".01" style="stop-color:#9ac8d7;stop-opacity:1"/><stop offset="1" style="stop-color:#9cb0d7;stop-opacity:1"/></linearGradient><linearGradient id="_Linear29" x1="0" x2="1" y1="0" y2="0" gradientTransform="matrix(1.10406e-14,-180.307,180.307,1.10406e-14,1403.12,1377.4)" gradientUnits="userSpaceOnUse"><stop offset="0" style="stop-color:#3b4072;stop-opacity:1"/><stop offset=".01" style="stop-color:#3b4072;stop-opacity:1"/><stop offset="1" style="stop-color:#252851;stop-opacity:1"/></linearGradient><linearGradient id="_Linear30" x1="0" x2="1" y1="0" y2="0" gradientTransform="matrix(7.20187e-15,117.615,-117.615,7.20187e-15,1136.61,1041.93)" gradientUnits="userSpaceOnUse"><stop offset="0" style="stop-color:#3b4072;stop-opacity:1"/><stop offset=".01" style="stop-color:#3b4072;stop-opacity:1"/><stop offset="1" style="stop-color:#252851;stop-opacity:1"/></linearGradient><linearGradient id="_Linear31" x1="0" x2="1" y1="0" y2="0" gradientTransform="matrix(3.6794e-14,-600.891,600.891,3.6794e-14,1442.43,933.521)" gradientUnits="userSpaceOnUse"><stop offset="0" style="stop-color:#a4e5f4;stop-opacity:1"/><stop offset="0" style="stop-color:#a4e5f4;stop-opacity:1"/><stop offset=".4" style="stop-color:#60acc4;stop-opacity:1"/><stop offset="1" style="stop-color:#352968;stop-opacity:1"/></linearGradient><linearGradient id="_Linear32" x1="0" x2="1" y1="0" y2="0" gradientTransform="matrix(2.65045e-14,-432.852,432.852,2.65045e-14,1442.43,1665.98)" gradientUnits="userSpaceOnUse"><stop offset="0" style="stop-color:#373766;stop-opacity:1"/><stop offset=".01" style="stop-color:#373766;stop-opacity:1"/><stop offset="1" style="stop-color:#19193d;stop-opacity:1"/></linearGradient><linearGradient id="_Linear33" x1="0" x2="1" y1="0" y2="0" gradientTransform="matrix(1.21159e-14,197.867,-197.867,1.21159e-14,1699.73,959.903)" gradientUnits="userSpaceOnUse"><stop offset="0" style="stop-color:#373766;stop-opacity:1"/><stop offset=".01" style="stop-color:#373766;stop-opacity:1"/><stop offset="1" style="stop-color:#19193d;stop-opacity:1"/></linearGradient><linearGradient id="_Linear34" x1="0" x2="1" y1="0" y2="0" gradientTransform="matrix(1.19111e-14,194.523,-194.523,1.19111e-14,1533.51,982.541)" gradientUnits="userSpaceOnUse"><stop offset="0" style="stop-color:#373766;stop-opacity:1"/><stop offset=".01" style="stop-color:#373766;stop-opacity:1"/><stop offset="1" style="stop-color:#19193d;stop-opacity:1"/></linearGradient></defs></svg>