<?xml version="1.0" encoding="UTF-8" standalone="no"?>
<!DOCTYPE svg PUBLIC "-//W3C//DTD SVG 1.1//EN" "http://www.w3.org/Graphics/SVG/1.1/DTD/svg11.dtd">
<svg width="100%" height="100%" viewBox="0 0 766 1361" version="1.1" xmlns="http://www.w3.org/2000/svg" xmlns:xlink="http://www.w3.org/1999/xlink" xml:space="preserve" xmlns:serif="http://www.serif.com/" style="fill-rule:evenodd;clip-rule:evenodd;stroke-linejoin:round;stroke-miterlimit:2;">
    <g transform="matrix(1,0,0,1,-142,-302)">
        <path d="M876.9,1662.9L172.7,1662.9C155.7,1662.9 142,1649.2 142,1632.2L142,332.7C142,315.7 155.7,302 172.7,302L876.8,302C893.8,302 907.5,315.7 907.5,332.7L907.5,1632.2C907.6,1649.2 893.8,1662.9 876.9,1662.9Z" style="fill:url(#_Linear1);fill-rule:nonzero;"/>
        <path d="M876.9,1662.9L172.7,1662.9C155.7,1662.9 142,1649.2 142,1632.2L142,332.7C142,315.7 155.7,302 172.7,302L876.8,302C893.8,302 907.5,315.7 907.5,332.7L907.5,1632.2C907.6,1649.2 893.8,1662.9 876.9,1662.9Z" style="fill:url(#_Linear2);fill-rule:nonzero;"/>
        <g>
            <path d="M721.1,775.9C660.7,775.9 611.6,726.9 611.6,666.4C611.6,605.9 660.6,556.9 721.1,556.9C781.5,556.9 830.6,605.9 830.6,666.4C830.6,726.9 781.6,775.9 721.1,775.9M721.1,540.2C651.4,540.2 594.8,596.7 594.8,666.5C594.8,736.3 651.3,792.8 721.1,792.8C790.8,792.8 847.4,736.3 847.4,666.5C847.4,596.7 790.9,540.2 721.1,540.2" style="fill:url(#_Linear3);fill-rule:nonzero;"/>
            <path d="M721.1,557C660.7,557 611.6,606 611.6,666.5C611.6,726.9 660.6,776 721.1,776C781.5,776 830.6,727 830.6,666.5C830.6,606 781.6,557 721.1,557" style="fill:url(#_Linear4);fill-rule:nonzero;"/>
        </g>
        <g>
            <path d="M416.5,777.3C416.5,777.3 448.6,739.1 465.4,739.1C482.2,739.1 532.2,837.7 552.4,831.4C572.5,825.1 579.3,794.5 605.9,826.5C632.5,858.5 739.1,981.5 739.1,981.5L600.8,1015.9L416.5,777.3Z" style="fill:url(#_Linear5);fill-rule:nonzero;"/>
            <path d="M167.3,640.2C167.3,640.2 220.7,586.3 246.4,586.3C270.7,586.3 344.6,726.2 344.6,726.2L229.9,801.3L167.3,640.2Z" style="fill:url(#_Linear6);fill-rule:nonzero;"/>
            <path d="M907.6,1041.5C907.6,1041.5 834.7,898.7 800.5,898.7C791.8,898.7 684.5,995.9 617.1,944.3C562.7,902.7 436.5,750.8 389.7,693.6C380,681.8 362.4,679.7 350.1,689C326.1,707.1 289.6,731.5 280.3,719.8C266.1,701.8 142,527.6 142,527.6L142,1041.4L907.6,1041.4L907.6,1041.5Z" style="fill:url(#_Linear7);fill-rule:nonzero;"/>
            <path d="M142,746.8C142,746.8 171.1,698.9 195.9,712.1C209.3,719.2 289.7,829.3 304,833.4C318.3,837.5 343.8,791.6 391.7,854.8C439.6,918 567,1041.5 567,1041.5L142,1041.5L142,746.8Z" style="fill:url(#_Linear8);fill-rule:nonzero;"/>
        </g>
        <circle cx="721.1" cy="666.5" r="90.1" style="fill:rgb(251,248,241);"/>
        <path d="M142,1041.5L907.6,1041.5L907.6,1629L142,1621L142,1041.5Z" style="fill:url(#_Linear9);fill-rule:nonzero;"/>
        <g>
            <path d="M398.7,1079.1C317.5,1079.1 245.1,1081.2 198.3,1084.5C245.1,1087.8 317.5,1089.9 398.7,1089.9C479.9,1089.9 552.3,1087.8 599.1,1084.5C552.3,1081.2 480,1079.1 398.7,1079.1" style="fill:url(#_Linear10);fill-rule:nonzero;"/>
            <path d="M388.9,1121.5C358.5,1121.5 331.4,1123.6 313.8,1126.9C331.3,1130.2 358.4,1132.3 388.9,1132.3C419.3,1132.3 446.4,1130.2 464,1126.9C446.5,1123.6 419.4,1121.5 388.9,1121.5" style="fill:url(#_Linear11);fill-rule:nonzero;"/>
            <path d="M777.8,1059.9C736,1059.9 698.7,1062 674.6,1065.3C698.7,1068.6 736,1070.7 777.8,1070.7C819.6,1070.7 856.9,1068.6 881,1065.3C856.9,1062 819.7,1059.9 777.8,1059.9" style="fill:url(#_Linear12);fill-rule:nonzero;"/>
            <path d="M871.8,1081.8C860.8,1081.8 850.9,1082.9 844.6,1084.5C851,1086.1 860.8,1087.2 871.8,1087.2C882.8,1087.2 892.7,1086.1 899,1084.5C892.7,1082.8 882.9,1081.8 871.8,1081.8" style="fill:url(#_Linear13);fill-rule:nonzero;"/>
            <path d="M524.8,1106C511,1106 498.8,1107.1 490.8,1108.7C498.7,1110.3 511,1111.4 524.8,1111.4C538.6,1111.4 550.8,1110.3 558.8,1108.7C550.8,1107 538.6,1106 524.8,1106" style="fill:url(#_Linear14);fill-rule:nonzero;"/>
            <path d="M483,1163.9C452.9,1163.9 426.2,1165 408.9,1166.6C426.2,1168.2 453,1169.3 483,1169.3C513.1,1169.3 539.8,1168.2 557.1,1166.6C539.9,1164.9 513.1,1163.9 483,1163.9" style="fill:url(#_Linear15);fill-rule:nonzero;"/>
            <path d="M293.1,1150.4C263,1150.4 236.3,1151.5 219,1153.1C236.3,1154.7 263.1,1155.8 293.1,1155.8C323.2,1155.8 349.9,1154.7 367.2,1153.1C349.9,1151.5 323.2,1150.4 293.1,1150.4" style="fill:url(#_Linear16);fill-rule:nonzero;"/>
            <path d="M558.8,1141.2C528.7,1141.2 502,1142.3 484.7,1143.9C502,1145.5 528.8,1146.6 558.8,1146.6C588.8,1146.6 615.6,1145.5 632.9,1143.9C615.6,1142.3 588.8,1141.2 558.8,1141.2" style="fill:url(#_Linear17);fill-rule:nonzero;"/>
        </g>
        <g>
            <path d="M142,1153.1C142,1153.1 333.5,1152.1 617.1,1359.6C895.8,1563.5 819.3,1662.9 819.3,1662.9L142,1628.3L142,1153.1Z" style="fill:url(#_Linear18);fill-rule:nonzero;"/>
            <path d="M176.1,1155.8L163.6,1175.7L175.9,1175.7C174.5,1178.5 172.9,1181.5 171.1,1184.7L267,1184.7C265.2,1181.5 263.6,1178.5 262.2,1175.7L274.5,1175.7L262,1155.8L277.9,1156.5C272.9,1150.6 266.1,1141.5 266.1,1141.5L273.7,1141.5C263.7,1134.5 252.1,1109.9 244.8,1092.5L253.6,1095.6L242.4,1074.2L256.1,1074.2C238.9,1060.8 219.1,1001 219.1,1001C219.1,1001 199.4,1060.8 182.1,1074.2L195.8,1074.2L184.6,1095.6L193.4,1092.5C186.1,1109.9 174.5,1134.5 164.5,1141.5L172.1,1141.5C172.1,1141.5 165.4,1150.6 160.3,1156.5L176.1,1155.8Z" style="fill:url(#_Linear19);fill-rule:nonzero;"/>
        </g>
        <g>
            <path d="M142,1632.2C142,1649.2 155.7,1662.9 172.7,1662.9L876.8,1662.9C893.8,1662.9 907.5,1649.2 907.5,1632.2L907.5,1130C551.8,1161.1 142,1351.9 142,1351.9L142,1632.2Z" style="fill:url(#_Linear20);fill-rule:nonzero;"/>
            <path d="M142,1632.2C142,1649.2 155.7,1662.9 172.7,1662.9L876.8,1662.9C893.8,1662.9 907.5,1649.2 907.5,1632.2L907.5,1130C551.8,1161.1 142,1351.9 142,1351.9L142,1632.2Z" style="fill:url(#_Linear21);fill-rule:nonzero;"/>
        </g>
        <path d="M709.9,1136.1L688.8,1169.6L709.5,1169.6C707.1,1174.3 704.4,1179.4 701.4,1184.8L862.7,1184.8C859.7,1179.4 857,1174.4 854.6,1169.6L875.3,1169.6L854.2,1136.1L880.9,1137.3C872.4,1127.4 861.1,1112.1 861.1,1112.1L874,1112.1C857.2,1100.3 837.6,1058.9 825.3,1029.6L840,1034.8L821.2,998.9L844.3,998.9C815.3,976.4 782.1,875.8 782.1,875.8C782.1,875.8 748.9,976.4 719.9,998.9L743,998.9L724.2,1034.8L738.9,1029.6C726.6,1058.9 707,1100.2 690.2,1112.1L703,1112.1C703,1112.1 691.7,1127.4 683.2,1137.3L709.9,1136.1Z" style="fill:url(#_Linear22);fill-rule:nonzero;"/>
        <path d="M557.9,1185.6L540.9,1212.5L557.5,1212.5C555.6,1216.3 553.4,1220.4 551,1224.7L680.7,1224.7C678.3,1220.4 676.1,1216.3 674.2,1212.5L690.8,1212.5L673.8,1185.6L695.3,1186.5C688.5,1178.6 679.4,1166.3 679.4,1166.3L689.6,1166.3C676.1,1156.8 660.4,1123.6 650.5,1100L662.3,1104.2L647.2,1075.3L665.8,1075.3C642.5,1057.2 615.8,976.4 615.8,976.4C615.8,976.4 589.1,1057.3 565.8,1075.3L584.4,1075.3L569.3,1104.2L581.1,1100C571.2,1123.6 555.5,1156.8 542,1166.3L552.2,1166.3C552.2,1166.3 543.1,1178.6 536.3,1186.5L557.9,1185.6Z" style="fill:url(#_Linear23);fill-rule:nonzero;"/>
    </g>
    <defs>
        <linearGradient id="_Linear1" x1="0" y1="0" x2="1" y2="0" gradientUnits="userSpaceOnUse" gradientTransform="matrix(3.6794e-14,-600.891,600.891,3.6794e-14,524.799,967.167)"><stop offset="0" style="stop-color:rgb(255,245,220);stop-opacity:1"/><stop offset="1" style="stop-color:rgb(244,100,148);stop-opacity:1"/></linearGradient>
        <linearGradient id="_Linear2" x1="0" y1="0" x2="1" y2="0" gradientUnits="userSpaceOnUse" gradientTransform="matrix(3.6794e-14,-600.891,600.891,3.6794e-14,524.799,967.167)"><stop offset="0" style="stop-color:rgb(255,245,220);stop-opacity:1"/><stop offset="1" style="stop-color:rgb(244,100,148);stop-opacity:1"/></linearGradient>
        <linearGradient id="_Linear3" x1="0" y1="0" x2="1" y2="0" gradientUnits="userSpaceOnUse" gradientTransform="matrix(6.23472e-11,-600.901,600.901,6.23472e-11,721.164,967.192)"><stop offset="0" style="stop-color:rgb(254,246,225);stop-opacity:1"/><stop offset="1" style="stop-color:rgb(246,135,170);stop-opacity:1"/></linearGradient>
        <linearGradient id="_Linear4" x1="0" y1="0" x2="1" y2="0" gradientUnits="userSpaceOnUse" gradientTransform="matrix(6.23472e-11,-600.901,600.901,6.23472e-11,721.164,967.192)"><stop offset="0" style="stop-color:rgb(253,246,229);stop-opacity:1"/><stop offset="1" style="stop-color:rgb(247,162,187);stop-opacity:1"/></linearGradient>
        <linearGradient id="_Linear5" x1="0" y1="0" x2="1" y2="0" gradientUnits="userSpaceOnUse" gradientTransform="matrix(1.23406e-14,-201.537,201.537,1.23406e-14,577.74,944.727)"><stop offset="0" style="stop-color:rgb(244,149,169);stop-opacity:1"/><stop offset="0.01" style="stop-color:rgb(244,149,169);stop-opacity:1"/><stop offset="1" style="stop-color:rgb(224,104,141);stop-opacity:1"/></linearGradient>
        <linearGradient id="_Linear6" x1="0" y1="0" x2="1" y2="0" gradientUnits="userSpaceOnUse" gradientTransform="matrix(-4.5122,-144.747,144.747,-4.5122,257.592,735.68)"><stop offset="0" style="stop-color:rgb(244,149,169);stop-opacity:1"/><stop offset="0.01" style="stop-color:rgb(244,149,169);stop-opacity:1"/><stop offset="1" style="stop-color:rgb(224,104,141);stop-opacity:1"/></linearGradient>
        <linearGradient id="_Linear7" x1="0" y1="0" x2="1" y2="0" gradientUnits="userSpaceOnUse" gradientTransform="matrix(62.5667,-120.978,120.978,62.5667,443.813,941.147)"><stop offset="0" style="stop-color:rgb(232,121,166);stop-opacity:1"/><stop offset="0.01" style="stop-color:rgb(232,121,166);stop-opacity:1"/><stop offset="1" style="stop-color:rgb(204,92,138);stop-opacity:1"/></linearGradient>
        <linearGradient id="_Linear8" x1="0" y1="0" x2="1" y2="0" gradientUnits="userSpaceOnUse" gradientTransform="matrix(1.37594e-14,-224.708,224.708,1.37594e-14,354.536,1106.82)"><stop offset="0" style="stop-color:rgb(216,100,152);stop-opacity:1"/><stop offset="0.01" style="stop-color:rgb(216,100,152);stop-opacity:1"/><stop offset="1" style="stop-color:rgb(183,78,126);stop-opacity:1"/></linearGradient>
        <linearGradient id="_Linear9" x1="0" y1="0" x2="1" y2="0" gradientUnits="userSpaceOnUse" gradientTransform="matrix(7.56128e-15,123.485,-123.485,7.56128e-15,524.799,1024.12)"><stop offset="0" style="stop-color:rgb(252,182,220);stop-opacity:1"/><stop offset="1" style="stop-color:rgb(226,163,226);stop-opacity:1"/></linearGradient>
        <linearGradient id="_Linear10" x1="0" y1="0" x2="1" y2="0" gradientUnits="userSpaceOnUse" gradientTransform="matrix(1.36392e-11,130.616,-130.616,1.36392e-11,398.738,1023.12)"><stop offset="0" style="stop-color:rgb(252,206,228);stop-opacity:1"/><stop offset="1" style="stop-color:rgb(235,194,232);stop-opacity:1"/></linearGradient>
        <linearGradient id="_Linear11" x1="0" y1="0" x2="1" y2="0" gradientUnits="userSpaceOnUse" gradientTransform="matrix(1.36392e-11,130.616,-130.616,1.36392e-11,388.925,1023.12)"><stop offset="0" style="stop-color:rgb(252,206,228);stop-opacity:1"/><stop offset="1" style="stop-color:rgb(235,194,232);stop-opacity:1"/></linearGradient>
        <linearGradient id="_Linear12" x1="0" y1="0" x2="1" y2="0" gradientUnits="userSpaceOnUse" gradientTransform="matrix(1.36392e-11,130.616,-130.616,1.36392e-11,777.838,1023.12)"><stop offset="0" style="stop-color:rgb(252,206,228);stop-opacity:1"/><stop offset="1" style="stop-color:rgb(235,194,232);stop-opacity:1"/></linearGradient>
        <linearGradient id="_Linear13" x1="0" y1="0" x2="1" y2="0" gradientUnits="userSpaceOnUse" gradientTransform="matrix(1.36392e-11,130.616,-130.616,1.36392e-11,871.838,1023.12)"><stop offset="0" style="stop-color:rgb(252,206,228);stop-opacity:1"/><stop offset="1" style="stop-color:rgb(235,194,232);stop-opacity:1"/></linearGradient>
        <linearGradient id="_Linear14" x1="0" y1="0" x2="1" y2="0" gradientUnits="userSpaceOnUse" gradientTransform="matrix(1.36392e-11,130.616,-130.616,1.36392e-11,524.806,1023.12)"><stop offset="0" style="stop-color:rgb(252,206,228);stop-opacity:1"/><stop offset="1" style="stop-color:rgb(235,194,232);stop-opacity:1"/></linearGradient>
        <linearGradient id="_Linear15" x1="0" y1="0" x2="1" y2="0" gradientUnits="userSpaceOnUse" gradientTransform="matrix(1.36392e-11,130.616,-130.616,1.36392e-11,483.04,1023.12)"><stop offset="0" style="stop-color:rgb(252,206,228);stop-opacity:1"/><stop offset="1" style="stop-color:rgb(235,194,232);stop-opacity:1"/></linearGradient>
        <linearGradient id="_Linear16" x1="0" y1="0" x2="1" y2="0" gradientUnits="userSpaceOnUse" gradientTransform="matrix(1.34362e-11,130.616,-130.616,1.34362e-11,293.118,1023.12)"><stop offset="0" style="stop-color:rgb(252,206,228);stop-opacity:1"/><stop offset="1" style="stop-color:rgb(235,194,232);stop-opacity:1"/></linearGradient>
        <linearGradient id="_Linear17" x1="0" y1="0" x2="1" y2="0" gradientUnits="userSpaceOnUse" gradientTransform="matrix(1.36392e-11,130.616,-130.616,1.36392e-11,558.796,1023.12)"><stop offset="0" style="stop-color:rgb(252,206,228);stop-opacity:1"/><stop offset="1" style="stop-color:rgb(235,194,232);stop-opacity:1"/></linearGradient>
        <linearGradient id="_Linear18" x1="0" y1="0" x2="1" y2="0" gradientUnits="userSpaceOnUse" gradientTransform="matrix(1.53589e-14,-250.831,250.831,1.53589e-14,485.489,1458)"><stop offset="0" style="stop-color:rgb(158,67,115);stop-opacity:1"/><stop offset="1" style="stop-color:rgb(102,46,85);stop-opacity:1"/></linearGradient>
        <linearGradient id="_Linear19" x1="0" y1="0" x2="1" y2="0" gradientUnits="userSpaceOnUse" gradientTransform="matrix(7.73448e-15,126.314,-126.314,7.73448e-15,218.981,1000.81)"><stop offset="0" style="stop-color:rgb(158,67,115);stop-opacity:1"/><stop offset="1" style="stop-color:rgb(102,46,85);stop-opacity:1"/></linearGradient>
        <linearGradient id="_Linear20" x1="0" y1="0" x2="1" y2="0" gradientUnits="userSpaceOnUse" gradientTransform="matrix(3.6794e-14,-600.891,600.891,3.6794e-14,524.799,967.167)"><stop offset="0" style="stop-color:rgb(255,245,220);stop-opacity:1"/><stop offset="1" style="stop-color:rgb(244,100,148);stop-opacity:1"/></linearGradient>
        <linearGradient id="_Linear21" x1="0" y1="0" x2="1" y2="0" gradientUnits="userSpaceOnUse" gradientTransform="matrix(2.36959e-14,-386.983,386.983,2.36959e-14,524.799,1652.72)"><stop offset="0" style="stop-color:rgb(102,48,92);stop-opacity:1"/><stop offset="1" style="stop-color:rgb(66,26,58);stop-opacity:1"/></linearGradient>
        <linearGradient id="_Linear22" x1="0" y1="0" x2="1" y2="0" gradientUnits="userSpaceOnUse" gradientTransform="matrix(1.31719e-14,215.113,-215.113,1.31719e-14,782.103,920.143)"><stop offset="0" style="stop-color:rgb(188,94,148);stop-opacity:1"/><stop offset="0.01" style="stop-color:rgb(188,94,148);stop-opacity:1"/><stop offset="0.13" style="stop-color:rgb(158,78,128);stop-opacity:1"/><stop offset="0.28" style="stop-color:rgb(127,62,109);stop-opacity:1"/><stop offset="0.4" style="stop-color:rgb(109,52,96);stop-opacity:1"/><stop offset="0.49" style="stop-color:rgb(102,48,92);stop-opacity:1"/><stop offset="1" style="stop-color:rgb(66,26,58);stop-opacity:1"/></linearGradient>
        <linearGradient id="_Linear23" x1="0" y1="0" x2="1" y2="0" gradientUnits="userSpaceOnUse" gradientTransform="matrix(1.11119e-14,181.47,-181.47,1.11119e-14,615.884,981.652)"><stop offset="0" style="stop-color:rgb(188,94,148);stop-opacity:1"/><stop offset="0.01" style="stop-color:rgb(188,94,148);stop-opacity:1"/><stop offset="0.03" style="stop-color:rgb(182,91,144);stop-opacity:1"/><stop offset="0.16" style="stop-color:rgb(147,72,122);stop-opacity:1"/><stop offset="0.29" style="stop-color:rgb(122,59,105);stop-opacity:1"/><stop offset="0.4" style="stop-color:rgb(107,51,95);stop-opacity:1"/><stop offset="0.49" style="stop-color:rgb(102,48,92);stop-opacity:1"/><stop offset="1" style="stop-color:rgb(66,26,58);stop-opacity:1"/></linearGradient>
    </defs>
</svg>
